<svg xmlns="http://www.w3.org/2000/svg" xmlns:xlink="http://www.w3.org/1999/xlink" contentStyleType="text/css" data-diagram-type="ACTIVITY" height="574px" preserveAspectRatio="none" style="width:1204px;height:574px;background:#FFFFFF;" version="1.1" viewBox="0 0 1204 574" width="1204px" zoomAndPan="magnify"><defs/><g><ellipse cx="615.7534" cy="20" fill="#222222" rx="10" ry="10" style="stroke:#222222;stroke-width:1;"/><rect fill="#E8F4F8" height="31.7773" rx="12.5" ry="12.5" style="stroke:#0066CC;stroke-width:0.5;" width="128.9648" x="551.271" y="50"/><text fill="#000000" font-family="sans-serif" font-size="10" lengthAdjust="spacing" textLength="108.9648" x="561.271" y="69.668">get_average_strategy()</text><rect fill="#E8F4F8" height="31.7773" rx="12.5" ry="12.5" style="stroke:#0066CC;stroke-width:0.5;" width="122.6953" x="554.4058" y="101.7773"/><text fill="#000000" font-family="sans-serif" font-size="10" lengthAdjust="spacing" textLength="102.6953" x="564.4058" y="121.4453">average_strategy = {}</text><rect fill="#E8F4F8" height="31.7773" rx="12.5" ry="12.5" style="stroke:#0066CC;stroke-width:0.5;" width="254.9219" x="488.2925" y="205.332"/><text fill="#000000" font-family="sans-serif" font-size="10" lengthAdjust="spacing" textLength="234.9219" x="498.2925" y="225">total = sum(strategy_sum[info_set_key].values())</text><polygon fill="#E8F4F8" points="592.3257,257.1094,639.1812,257.1094,651.1812,269.1094,639.1812,281.1094,592.3257,281.1094,580.3257,269.1094,592.3257,257.1094" style="stroke:#0066CC;stroke-width:0.5;"/><text fill="#000000" font-family="sans-serif" font-size="10" lengthAdjust="spacing" textLength="46.8555" x="592.3257" y="272.8887">total &gt; 0?</text><text fill="#000000" font-family="sans-serif" font-size="11" lengthAdjust="spacing" textLength="17.4829" x="562.8428" y="266.7891">yes</text><text fill="#000000" font-family="sans-serif" font-size="11" lengthAdjust="spacing" textLength="13.5835" x="651.1812" y="266.7891">no</text><rect fill="#E8F4F8" height="31.7773" rx="12.5" ry="12.5" style="stroke:#0066CC;stroke-width:0.5;" width="622.8076" x="11" y="291.1094"/><text fill="#000000" font-family="sans-serif" font-size="10" lengthAdjust="spacing" textLength="602.8076" x="21" y="310.7773">average_strategy[info_set_key] = {action: strategy_sum[info_set_key][action] / total for action in strategy_sum[info_set_key]}</text><rect fill="#E8F4F8" height="31.7773" rx="12.5" ry="12.5" style="stroke:#0066CC;stroke-width:0.5;" width="248.252" x="784.9771" y="291.1094"/><text fill="#000000" font-family="sans-serif" font-size="10" lengthAdjust="spacing" textLength="228.252" x="794.9771" y="310.7773">num_actions = len(strategy_sum[info_set_key])</text><rect fill="#E8F4F8" height="31.7773" rx="12.5" ry="12.5" style="stroke:#0066CC;stroke-width:0.5;" width="510.5908" x="653.8076" y="342.8867"/><text fill="#000000" font-family="sans-serif" font-size="10" lengthAdjust="spacing" textLength="490.5908" x="663.8076" y="362.5547">average_strategy[info_set_key] = {action: 1.0 / num_actions for action in strategy_sum[info_set_key]}</text><polygon fill="#E8F4F8" points="615.7534,380.6641,627.7534,392.6641,615.7534,404.6641,603.7534,392.6641,615.7534,380.6641" style="stroke:#0066CC;stroke-width:0.5;"/><rect fill="#E8F4F8" height="31.7773" rx="12.5" ry="12.5" style="stroke:#0066CC;stroke-width:0.5;" width="204.5996" x="513.4536" y="153.5547"/><text fill="#000000" font-family="sans-serif" font-size="10" lengthAdjust="spacing" textLength="184.5996" x="523.4536" y="173.2227">For each info_set_key in strategy_sum</text><polygon fill="#E8F4F8" points="567.3208,424.6641,664.186,424.6641,676.186,436.6641,664.186,448.6641,567.3208,448.6641,555.3208,436.6641,567.3208,424.6641" style="stroke:#0066CC;stroke-width:0.5;"/><text fill="#000000" font-family="sans-serif" font-size="10" lengthAdjust="spacing" textLength="96.8652" x="567.3208" y="440.4434">More info_set_keys?</text><text fill="#000000" font-family="sans-serif" font-size="11" lengthAdjust="spacing" textLength="17.4829" x="676.186" y="434.3438">yes</text><rect fill="#E8F4F8" height="31.7773" rx="12.5" ry="12.5" style="stroke:#0066CC;stroke-width:0.5;" width="134.9854" x="548.2607" y="489.9395"/><text fill="#000000" font-family="sans-serif" font-size="10" lengthAdjust="spacing" textLength="114.9854" x="558.2607" y="509.6074">return average_strategy</text><ellipse cx="615.7534" cy="552.7168" fill="none" rx="11" ry="11" style="stroke:#222222;stroke-width:1;"/><ellipse cx="615.7534" cy="552.7168" fill="#222222" rx="6" ry="6" style="stroke:#222222;stroke-width:1;"/><line style="stroke:#181818;stroke-width:1;" x1="615.7534" x2="615.7534" y1="30" y2="50"/><polygon fill="#181818" points="611.7534,40,615.7534,50,619.7534,40,615.7534,44" style="stroke:#181818;stroke-width:1;"/><line style="stroke:#181818;stroke-width:1;" x1="615.7534" x2="615.7534" y1="81.7773" y2="101.7773"/><polygon fill="#181818" points="611.7534,91.7773,615.7534,101.7773,619.7534,91.7773,615.7534,95.7773" style="stroke:#181818;stroke-width:1;"/><line style="stroke:#181818;stroke-width:1;" x1="909.103" x2="909.103" y1="322.8867" y2="342.8867"/><polygon fill="#181818" points="905.103,332.8867,909.103,342.8867,913.103,332.8867,909.103,336.8867" style="stroke:#181818;stroke-width:1;"/><line style="stroke:#181818;stroke-width:1;" x1="580.3257" x2="322.4038" y1="269.1094" y2="269.1094"/><line style="stroke:#181818;stroke-width:1;" x1="322.4038" x2="322.4038" y1="269.1094" y2="291.1094"/><polygon fill="#181818" points="318.4038,281.1094,322.4038,291.1094,326.4038,281.1094,322.4038,285.1094" style="stroke:#181818;stroke-width:1;"/><line style="stroke:#181818;stroke-width:1;" x1="651.1812" x2="909.103" y1="269.1094" y2="269.1094"/><line style="stroke:#181818;stroke-width:1;" x1="909.103" x2="909.103" y1="269.1094" y2="291.1094"/><polygon fill="#181818" points="905.103,281.1094,909.103,291.1094,913.103,281.1094,909.103,285.1094" style="stroke:#181818;stroke-width:1;"/><line style="stroke:#181818;stroke-width:1;" x1="322.4038" x2="322.4038" y1="322.8867" y2="392.6641"/><line style="stroke:#181818;stroke-width:1;" x1="322.4038" x2="603.7534" y1="392.6641" y2="392.6641"/><polygon fill="#181818" points="593.7534,388.6641,603.7534,392.6641,593.7534,396.6641,597.7534,392.6641" style="stroke:#181818;stroke-width:1;"/><line style="stroke:#181818;stroke-width:1;" x1="909.103" x2="909.103" y1="374.6641" y2="392.6641"/><line style="stroke:#181818;stroke-width:1;" x1="909.103" x2="627.7534" y1="392.6641" y2="392.6641"/><polygon fill="#181818" points="637.7534,388.6641,627.7534,392.6641,637.7534,396.6641,633.7534,392.6641" style="stroke:#181818;stroke-width:1;"/><line style="stroke:#181818;stroke-width:1;" x1="615.7534" x2="615.7534" y1="237.1094" y2="257.1094"/><polygon fill="#181818" points="611.7534,247.1094,615.7534,257.1094,619.7534,247.1094,615.7534,251.1094" style="stroke:#181818;stroke-width:1;"/><line style="stroke:#181818;stroke-width:1;" x1="615.7534" x2="615.7534" y1="185.332" y2="205.332"/><polygon fill="#181818" points="611.7534,195.332,615.7534,205.332,619.7534,195.332,615.7534,199.332" style="stroke:#181818;stroke-width:1;"/><line style="stroke:#181818;stroke-width:1;" x1="676.186" x2="1178.3984" y1="436.6641" y2="436.6641"/><polygon fill="#181818" points="1174.3984,313.0537,1178.3984,303.0537,1182.3984,313.0537,1178.3984,309.0537" style="stroke:#181818;stroke-width:1;"/><line style="stroke:#181818;stroke-width:1;" x1="1178.3984" x2="1178.3984" y1="169.4434" y2="436.6641"/><line style="stroke:#181818;stroke-width:1;" x1="1178.3984" x2="718.0532" y1="169.4434" y2="169.4434"/><polygon fill="#181818" points="728.0532,165.4434,718.0532,169.4434,728.0532,173.4434,724.0532,169.4434" style="stroke:#181818;stroke-width:1;"/><line style="stroke:#181818;stroke-width:1;" x1="615.7534" x2="615.7534" y1="404.6641" y2="424.6641"/><polygon fill="#181818" points="611.7534,414.6641,615.7534,424.6641,619.7534,414.6641,615.7534,418.6641" style="stroke:#181818;stroke-width:1;"/><line style="stroke:#181818;stroke-width:1;" x1="615.7534" x2="615.7534" y1="133.5547" y2="153.5547"/><polygon fill="#181818" points="611.7534,143.5547,615.7534,153.5547,619.7534,143.5547,615.7534,147.5547" style="stroke:#181818;stroke-width:1;"/><line style="stroke:#181818;stroke-width:1;" x1="615.7534" x2="615.7534" y1="448.6641" y2="489.9395"/><polygon fill="#181818" points="611.7534,479.9395,615.7534,489.9395,619.7534,479.9395,615.7534,483.9395" style="stroke:#181818;stroke-width:1;"/><text fill="#000000" font-family="sans-serif" font-size="11" lengthAdjust="spacing" textLength="13.5835" x="619.7534" y="470.1191">no</text><line style="stroke:#181818;stroke-width:1;" x1="615.7534" x2="615.7534" y1="521.7168" y2="541.7168"/><polygon fill="#181818" points="611.7534,531.7168,615.7534,541.7168,619.7534,531.7168,615.7534,535.7168" style="stroke:#181818;stroke-width:1;"/><!--SRC=[bLB1QiCm3BtxAmIx98TrAOnI4jR1odBRQSTIWccKr3InWwrqP2N_FYLkeUdOeBv9yjDxJv8xADr8AskGEr97HHsS1F1xaxj3QKshyxMfZ8M7zsNwd2vzpTWSxJaVHOl5UZtcKwFfKtqZp2FH2-58MX8YBf4oUKGhIymSMKbOTa6OSEKs2ozmwhbWiK594ATCW7At1wKBapdkSy2E0xW0CjVM2NF7P4XM3ESuk2vkhf7RsL5MBReW30UGAY3mk1L4ho7G7ZK47RfmTFDBtRJNe7MOcT4n_CsuyL-sy0IUgc1BFdVhOmhi1uLOEOH0cxCWtTQPnpfchr3_OtLqU9U9-InYbTSSzsdLkIekc_lQgugLVnYBazqv7hDovo4_ha2RuGmiKcirt4fDXXCoZVW1]--></g></svg>