<svg xmlns="http://www.w3.org/2000/svg" xmlns:xlink="http://www.w3.org/1999/xlink" contentStyleType="text/css" data-diagram-type="ACTIVITY" height="770px" preserveAspectRatio="none" style="width:419px;height:770px;background:#FFFFFF;" version="1.1" viewBox="0 0 419 770" width="419px" zoomAndPan="magnify"><defs/><g><ellipse cx="145.7998" cy="20" fill="#222222" rx="10" ry="10" style="stroke:#222222;stroke-width:1;"/><rect fill="#E8F4F8" height="31.7773" rx="12.5" ry="12.5" style="stroke:#0066CC;stroke-width:0.5;" width="172.8271" x="59.3862" y="50"/><text fill="#000000" font-family="sans-serif" font-size="10" lengthAdjust="spacing" textLength="152.8271" x="69.3862" y="69.668">Parse command line arguments</text><rect fill="#E8F4F8" height="31.7773" rx="12.5" ry="12.5" style="stroke:#0066CC;stroke-width:0.5;" width="205.4688" x="43.0654" y="101.7773"/><text fill="#000000" font-family="sans-serif" font-size="10" lengthAdjust="spacing" textLength="185.4688" x="53.0654" y="121.4453">Get game config from GAME_CONFIGS</text><rect fill="#E8F4F8" height="31.7773" rx="12.5" ry="12.5" style="stroke:#0066CC;stroke-width:0.5;" width="148.3447" x="71.6274" y="153.5547"/><text fill="#000000" font-family="sans-serif" font-size="10" lengthAdjust="spacing" textLength="128.3447" x="81.6274" y="173.2227">Create LeducHoldemGame</text><rect fill="#E8F4F8" height="31.7773" rx="12.5" ry="12.5" style="stroke:#0066CC;stroke-width:0.5;" width="188.0762" x="51.7617" y="205.332"/><text fill="#000000" font-family="sans-serif" font-size="10" lengthAdjust="spacing" textLength="168.0762" x="61.7617" y="225">Create LeducHoldemCombinations</text><rect fill="#E8F4F8" height="31.7773" rx="12.5" ry="12.5" style="stroke:#0066CC;stroke-width:0.5;" width="213.5205" x="39.0396" y="257.1094"/><text fill="#000000" font-family="sans-serif" font-size="10" lengthAdjust="spacing" textLength="193.5205" x="49.0396" y="276.7773">Create MCCFRSolver(game, combo_gen)</text><rect fill="#E8F4F8" height="31.7773" rx="12.5" ry="12.5" style="stroke:#0066CC;stroke-width:0.5;" width="126.9824" x="82.3086" y="308.8867"/><text fill="#000000" font-family="sans-serif" font-size="10" lengthAdjust="spacing" textLength="106.9824" x="92.3086" y="328.5547">solver.train(iterations)</text><rect fill="#E8F4F8" height="31.7773" rx="12.5" ry="12.5" style="stroke:#0066CC;stroke-width:0.5;" width="85.1904" x="103.2046" y="360.6641"/><text fill="#000000" font-family="sans-serif" font-size="10" lengthAdjust="spacing" textLength="65.1904" x="113.2046" y="380.332">cfr_iteration()</text><rect fill="#E8F4F8" height="31.7773" rx="12.5" ry="12.5" style="stroke:#0066CC;stroke-width:0.5;" width="238.6768" x="26.4614" y="412.4414"/><text fill="#000000" font-family="sans-serif" font-size="10" lengthAdjust="spacing" textLength="218.6768" x="36.4614" y="432.1094">combination = random.choice(combinations)</text><rect fill="#E8F4F8" height="31.7773" rx="12.5" ry="12.5" style="stroke:#0066CC;stroke-width:0.5;" width="269.5996" x="11" y="464.2188"/><text fill="#000000" font-family="sans-serif" font-size="10" lengthAdjust="spacing" textLength="249.5996" x="21" y="483.8867">setup_game_with_combination(game, combination)</text><path d="M222.5063,505.9961 L222.5063,529.9619 L202.5063,533.9619 L222.5063,537.9619 L222.5063,561.9277 A0,0 0 0 0 222.5063,561.9277 L407.8726,561.9277 A0,0 0 0 0 407.8726,561.9277 L407.8726,515.9961 L397.8726,505.9961 L222.5063,505.9961 A0,0 0 0 0 222.5063,505.9961" fill="#FEFFDD" style="stroke:#181818;stroke-width:0.5;"/><path d="M397.8726,505.9961 L397.8726,515.9961 L407.8726,515.9961 L397.8726,505.9961" fill="#FEFFDD" style="stroke:#181818;stroke-width:0.5;"/><text fill="#000000" font-family="sans-serif" font-size="13" lengthAdjust="spacing" textLength="164.3662" x="228.5063" y="523.5645">recursive, updates regrets</text><text fill="#000000" font-family="sans-serif" font-size="13" lengthAdjust="spacing" textLength="120.3452" x="228.5063" y="538.875">Called for player 0,</text><text fill="#000000" font-family="sans-serif" font-size="13" lengthAdjust="spacing" textLength="105.3584" x="228.5063" y="554.1855">then for player 1</text><rect fill="#E8F4F8" height="31.7773" rx="12.5" ry="12.5" style="stroke:#0066CC;stroke-width:0.5;" width="113.4131" x="89.0933" y="518.0732"/><text fill="#000000" font-family="sans-serif" font-size="10" lengthAdjust="spacing" textLength="93.4131" x="99.0933" y="537.7412">Traverse game tree</text><rect fill="#E8F4F8" height="31.7773" rx="12.5" ry="12.5" style="stroke:#0066CC;stroke-width:0.5;" width="128.9648" x="81.3174" y="581.9277"/><text fill="#000000" font-family="sans-serif" font-size="10" lengthAdjust="spacing" textLength="108.9648" x="91.3174" y="601.5957">get_average_strategy()</text><rect fill="#E8F4F8" height="31.7773" rx="12.5" ry="12.5" style="stroke:#0066CC;stroke-width:0.5;" width="236.3184" x="27.6406" y="633.7051"/><text fill="#000000" font-family="sans-serif" font-size="10" lengthAdjust="spacing" textLength="216.3184" x="37.6406" y="653.373">get_model_path(game, iterations, algorithm)</text><rect fill="#E8F4F8" height="31.7773" rx="12.5" ry="12.5" style="stroke:#0066CC;stroke-width:0.5;" width="142.9492" x="74.3252" y="685.4824"/><text fill="#000000" font-family="sans-serif" font-size="10" lengthAdjust="spacing" textLength="122.9492" x="84.3252" y="705.1504">solver.save_gzip(filepath)</text><ellipse cx="145.7998" cy="748.2598" fill="none" rx="11" ry="11" style="stroke:#222222;stroke-width:1;"/><ellipse cx="145.7998" cy="748.2598" fill="#222222" rx="6" ry="6" style="stroke:#222222;stroke-width:1;"/><line style="stroke:#181818;stroke-width:1;" x1="145.7998" x2="145.7998" y1="30" y2="50"/><polygon fill="#181818" points="141.7998,40,145.7998,50,149.7998,40,145.7998,44" style="stroke:#181818;stroke-width:1;"/><line style="stroke:#181818;stroke-width:1;" x1="145.7998" x2="145.7998" y1="81.7773" y2="101.7773"/><polygon fill="#181818" points="141.7998,91.7773,145.7998,101.7773,149.7998,91.7773,145.7998,95.7773" style="stroke:#181818;stroke-width:1;"/><line style="stroke:#181818;stroke-width:1;" x1="145.7998" x2="145.7998" y1="133.5547" y2="153.5547"/><polygon fill="#181818" points="141.7998,143.5547,145.7998,153.5547,149.7998,143.5547,145.7998,147.5547" style="stroke:#181818;stroke-width:1;"/><line style="stroke:#181818;stroke-width:1;" x1="145.7998" x2="145.7998" y1="185.332" y2="205.332"/><polygon fill="#181818" points="141.7998,195.332,145.7998,205.332,149.7998,195.332,145.7998,199.332" style="stroke:#181818;stroke-width:1;"/><line style="stroke:#181818;stroke-width:1;" x1="145.7998" x2="145.7998" y1="237.1094" y2="257.1094"/><polygon fill="#181818" points="141.7998,247.1094,145.7998,257.1094,149.7998,247.1094,145.7998,251.1094" style="stroke:#181818;stroke-width:1;"/><line style="stroke:#181818;stroke-width:1;" x1="145.7998" x2="145.7998" y1="288.8867" y2="308.8867"/><polygon fill="#181818" points="141.7998,298.8867,145.7998,308.8867,149.7998,298.8867,145.7998,302.8867" style="stroke:#181818;stroke-width:1;"/><line style="stroke:#181818;stroke-width:1;" x1="145.7998" x2="145.7998" y1="340.6641" y2="360.6641"/><polygon fill="#181818" points="141.7998,350.6641,145.7998,360.6641,149.7998,350.6641,145.7998,354.6641" style="stroke:#181818;stroke-width:1;"/><line style="stroke:#181818;stroke-width:1;" x1="145.7998" x2="145.7998" y1="392.4414" y2="412.4414"/><polygon fill="#181818" points="141.7998,402.4414,145.7998,412.4414,149.7998,402.4414,145.7998,406.4414" style="stroke:#181818;stroke-width:1;"/><line style="stroke:#181818;stroke-width:1;" x1="145.7998" x2="145.7998" y1="444.2188" y2="464.2188"/><polygon fill="#181818" points="141.7998,454.2188,145.7998,464.2188,149.7998,454.2188,145.7998,458.2188" style="stroke:#181818;stroke-width:1;"/><line style="stroke:#181818;stroke-width:1;" x1="145.7998" x2="145.7998" y1="495.9961" y2="518.0732"/><polygon fill="#181818" points="141.7998,508.0732,145.7998,518.0732,149.7998,508.0732,145.7998,512.0732" style="stroke:#181818;stroke-width:1;"/><line style="stroke:#181818;stroke-width:1;" x1="145.7998" x2="145.7998" y1="549.8506" y2="581.9277"/><polygon fill="#181818" points="141.7998,571.9277,145.7998,581.9277,149.7998,571.9277,145.7998,575.9277" style="stroke:#181818;stroke-width:1;"/><line style="stroke:#181818;stroke-width:1;" x1="145.7998" x2="145.7998" y1="613.7051" y2="633.7051"/><polygon fill="#181818" points="141.7998,623.7051,145.7998,633.7051,149.7998,623.7051,145.7998,627.7051" style="stroke:#181818;stroke-width:1;"/><line style="stroke:#181818;stroke-width:1;" x1="145.7998" x2="145.7998" y1="665.4824" y2="685.4824"/><polygon fill="#181818" points="141.7998,675.4824,145.7998,685.4824,149.7998,675.4824,145.7998,679.4824" style="stroke:#181818;stroke-width:1;"/><line style="stroke:#181818;stroke-width:1;" x1="145.7998" x2="145.7998" y1="717.2598" y2="737.2598"/><polygon fill="#181818" points="141.7998,727.2598,145.7998,737.2598,149.7998,727.2598,145.7998,731.2598" style="stroke:#181818;stroke-width:1;"/><!--SRC=[RL5TQnin47pNhn3qvG8cE512SEX3At9k86bBtNUnkTlJYUZZMEqvEAN_lQkpgVrGFSxCxiwCogjF4n143HtxlUU3_gsql2_GlJhAS-fD3fdqXuUxzcDxT-GozKWdVBs-lJLcmTkSUEVVKT-irH-b2WEnKfiVG0LrbsE4rElW4seWDqTCNExLPeki7SIgI8DtUg0SzVRpyuCrtx-rZzkTQ0mXCEedxEVkQmuzngrC_9SmERxu1EnpAcV1ip7jprqEUwIc7bjLFo_PEanNz-AnBDGr4_ZKU4OwBbYuRY3x3sgEqFc8_gH9SkLutOtPTzXSSCVvWZnFjbwrRvv7Uo6uy792P6BpYq3CI6TBBKmeILEM5EJTo58rOJTJyNiPdQTUyXM1724N8Gs4WBqUv7Ec00SalLu9p2EcI_16eVn6NIiM7RAjDy6XBL82eplKf0iHSu_1Ji3ZoUwvdvM6u399gbZLfnQBhBBktK_Du0FMmTf3uJoflm00]--></g></svg>