<svg xmlns="http://www.w3.org/2000/svg" xmlns:xlink="http://www.w3.org/1999/xlink" contentStyleType="text/css" data-diagram-type="ACTIVITY" height="897px" preserveAspectRatio="none" style="width:474px;height:897px;background:#FFFFFF;" version="1.1" viewBox="0 0 474 897" width="474px" zoomAndPan="magnify"><defs/><g><ellipse cx="155.7998" cy="20" fill="#222222" rx="10" ry="10" style="stroke:#222222;stroke-width:1;"/><rect fill="#E8F4F8" height="31.7773" rx="12.5" ry="12.5" style="stroke:#0066CC;stroke-width:0.5;" width="172.8271" x="69.3862" y="50"/><text fill="#000000" font-family="sans-serif" font-size="10" lengthAdjust="spacing" textLength="152.8271" x="79.3862" y="69.668">Parse command line arguments</text><rect fill="#E8F4F8" height="31.7773" rx="12.5" ry="12.5" style="stroke:#0066CC;stroke-width:0.5;" width="134.6045" x="88.4976" y="101.7773"/><text fill="#000000" font-family="sans-serif" font-size="10" lengthAdjust="spacing" textLength="114.6045" x="98.4976" y="121.4453">Get game configuration</text><rect fill="#E8F4F8" height="31.7773" rx="12.5" ry="12.5" style="stroke:#0066CC;stroke-width:0.5;" width="81.2451" x="115.1772" y="153.5547"/><text fill="#000000" font-family="sans-serif" font-size="10" lengthAdjust="spacing" textLength="61.2451" x="125.1772" y="173.2227">Create game</text><rect fill="#E8F4F8" height="31.7773" rx="12.5" ry="12.5" style="stroke:#0066CC;stroke-width:0.5;" width="165.4102" x="73.0947" y="205.332"/><text fill="#000000" font-family="sans-serif" font-size="10" lengthAdjust="spacing" textLength="145.4102" x="83.0947" y="225">Create combination generator</text><rect fill="#E8F4F8" height="31.7773" rx="12.5" ry="12.5" style="stroke:#0066CC;stroke-width:0.5;" width="83.5498" x="114.0249" y="257.1094"/><text fill="#000000" font-family="sans-serif" font-size="10" lengthAdjust="spacing" textLength="63.5498" x="124.0249" y="276.7773">Create solver</text><rect fill="none" height="370.3057" style="stroke:#000000;stroke-width:1.5;" width="452.8726" x="11" y="298.8867"/><path d="M77.5127,298.8867 L77.5127,308.375 L67.5127,318.375 L11,318.375" fill="none" style="stroke:#000000;stroke-width:1.5;"/><text fill="#000000" font-family="sans-serif" font-size="14" lengthAdjust="spacing" textLength="56.5127" x="14" y="313.4219">Training</text><rect fill="#E8F4F8" height="31.7773" rx="12.5" ry="12.5" style="stroke:#0066CC;stroke-width:0.5;" width="269.5996" x="21" y="438.9297"/><text fill="#000000" font-family="sans-serif" font-size="10" lengthAdjust="spacing" textLength="249.5996" x="31" y="458.5977">setup_game_with_combination(game, combination)</text><path d="M232.5063,491.9629 L232.5063,515.9287 L212.5063,519.9287 L232.5063,523.9287 L232.5063,547.8945 A0,0 0 0 0 232.5063,547.8945 L417.8726,547.8945 A0,0 0 0 0 417.8726,547.8945 L417.8726,501.9629 L407.8726,491.9629 L232.5063,491.9629 A0,0 0 0 0 232.5063,491.9629" fill="#FEFFDD" style="stroke:#181818;stroke-width:0.5;"/><path d="M407.8726,491.9629 L407.8726,501.9629 L417.8726,501.9629 L407.8726,491.9629" fill="#FEFFDD" style="stroke:#181818;stroke-width:0.5;"/><text fill="#000000" font-family="sans-serif" font-size="13" lengthAdjust="spacing" textLength="164.3662" x="238.5063" y="509.5313">recursive, updates regrets</text><text fill="#000000" font-family="sans-serif" font-size="13" lengthAdjust="spacing" textLength="120.3452" x="238.5063" y="524.8418">Called for player 0,</text><text fill="#000000" font-family="sans-serif" font-size="13" lengthAdjust="spacing" textLength="105.3584" x="238.5063" y="540.1523">then for player 1</text><rect fill="#E8F4F8" height="31.7773" rx="12.5" ry="12.5" style="stroke:#0066CC;stroke-width:0.5;" width="113.4131" x="99.0933" y="504.04"/><text fill="#000000" font-family="sans-serif" font-size="10" lengthAdjust="spacing" textLength="93.4131" x="109.0933" y="523.708">Traverse game tree</text><rect fill="#E8F4F8" height="31.7773" rx="12.5" ry="12.5" style="stroke:#0066CC;stroke-width:0.5;" width="124.8389" x="93.3804" y="387.1523"/><text fill="#000000" font-family="sans-serif" font-size="10" lengthAdjust="spacing" textLength="104.8389" x="103.3804" y="406.8203">For each combination</text><polygon fill="#E8F4F8" points="107.1035,567.8945,204.4961,567.8945,216.4961,579.8945,204.4961,591.8945,107.1035,591.8945,95.1035,579.8945,107.1035,567.8945" style="stroke:#0066CC;stroke-width:0.5;"/><text fill="#000000" font-family="sans-serif" font-size="10" lengthAdjust="spacing" textLength="97.3926" x="107.1035" y="583.6738">More combinations?</text><text fill="#000000" font-family="sans-serif" font-size="11" lengthAdjust="spacing" textLength="17.4829" x="216.4961" y="577.5742">yes</text><rect fill="#E8F4F8" height="31.7773" rx="12.5" ry="12.5" style="stroke:#0066CC;stroke-width:0.5;" width="105.1416" x="103.229" y="335.375"/><text fill="#000000" font-family="sans-serif" font-size="10" lengthAdjust="spacing" textLength="85.1416" x="113.229" y="355.043">For each iteration</text><polygon fill="#E8F4F8" points="116.9521,633.1924,194.6475,633.1924,206.6475,645.1924,194.6475,657.1924,116.9521,657.1924,104.9521,645.1924,116.9521,633.1924" style="stroke:#0066CC;stroke-width:0.5;"/><text fill="#000000" font-family="sans-serif" font-size="10" lengthAdjust="spacing" textLength="77.6953" x="116.9521" y="648.9717">More iterations?</text><text fill="#000000" font-family="sans-serif" font-size="11" lengthAdjust="spacing" textLength="17.4829" x="206.6475" y="642.8721">yes</text><rect fill="#E8F4F8" height="31.7773" rx="12.5" ry="12.5" style="stroke:#0066CC;stroke-width:0.5;" width="147.627" x="81.9863" y="708.8271"/><text fill="#000000" font-family="sans-serif" font-size="10" lengthAdjust="spacing" textLength="127.627" x="91.9863" y="728.4951">Calculate average strategy</text><rect fill="#E8F4F8" height="31.7773" rx="12.5" ry="12.5" style="stroke:#0066CC;stroke-width:0.5;" width="146.9873" x="82.3062" y="760.6045"/><text fill="#000000" font-family="sans-serif" font-size="10" lengthAdjust="spacing" textLength="126.9873" x="92.3062" y="780.2725">Determine model file path</text><rect fill="#E8F4F8" height="31.7773" rx="12.5" ry="12.5" style="stroke:#0066CC;stroke-width:0.5;" width="106.2939" x="102.6528" y="812.3818"/><text fill="#000000" font-family="sans-serif" font-size="10" lengthAdjust="spacing" textLength="86.2939" x="112.6528" y="832.0498">Save model to file</text><ellipse cx="155.7998" cy="875.1592" fill="none" rx="11" ry="11" style="stroke:#222222;stroke-width:1;"/><ellipse cx="155.7998" cy="875.1592" fill="#222222" rx="6" ry="6" style="stroke:#222222;stroke-width:1;"/><line style="stroke:#181818;stroke-width:1;" x1="155.7998" x2="155.7998" y1="30" y2="50"/><polygon fill="#181818" points="151.7998,40,155.7998,50,159.7998,40,155.7998,44" style="stroke:#181818;stroke-width:1;"/><line style="stroke:#181818;stroke-width:1;" x1="155.7998" x2="155.7998" y1="81.7773" y2="101.7773"/><polygon fill="#181818" points="151.7998,91.7773,155.7998,101.7773,159.7998,91.7773,155.7998,95.7773" style="stroke:#181818;stroke-width:1;"/><line style="stroke:#181818;stroke-width:1;" x1="155.7998" x2="155.7998" y1="133.5547" y2="153.5547"/><polygon fill="#181818" points="151.7998,143.5547,155.7998,153.5547,159.7998,143.5547,155.7998,147.5547" style="stroke:#181818;stroke-width:1;"/><line style="stroke:#181818;stroke-width:1;" x1="155.7998" x2="155.7998" y1="185.332" y2="205.332"/><polygon fill="#181818" points="151.7998,195.332,155.7998,205.332,159.7998,195.332,155.7998,199.332" style="stroke:#181818;stroke-width:1;"/><line style="stroke:#181818;stroke-width:1;" x1="155.7998" x2="155.7998" y1="237.1094" y2="257.1094"/><polygon fill="#181818" points="151.7998,247.1094,155.7998,257.1094,159.7998,247.1094,155.7998,251.1094" style="stroke:#181818;stroke-width:1;"/><line style="stroke:#181818;stroke-width:1;" x1="155.7998" x2="155.7998" y1="470.707" y2="504.04"/><polygon fill="#181818" points="151.7998,494.04,155.7998,504.04,159.7998,494.04,155.7998,498.04" style="stroke:#181818;stroke-width:1;"/><line style="stroke:#181818;stroke-width:1;" x1="155.7998" x2="155.7998" y1="418.9297" y2="438.9297"/><polygon fill="#181818" points="151.7998,428.9297,155.7998,438.9297,159.7998,428.9297,155.7998,432.9297" style="stroke:#181818;stroke-width:1;"/><line style="stroke:#181818;stroke-width:1;" x1="216.4961" x2="429.8726" y1="579.8945" y2="579.8945"/><polygon fill="#181818" points="425.8726,494.5957,429.8726,484.5957,433.8726,494.5957,429.8726,490.5957" style="stroke:#181818;stroke-width:1;"/><line style="stroke:#181818;stroke-width:1;" x1="429.8726" x2="429.8726" y1="403.041" y2="579.8945"/><line style="stroke:#181818;stroke-width:1;" x1="429.8726" x2="218.2192" y1="403.041" y2="403.041"/><polygon fill="#181818" points="228.2192,399.041,218.2192,403.041,228.2192,407.041,224.2192,403.041" style="stroke:#181818;stroke-width:1;"/><line style="stroke:#181818;stroke-width:1;" x1="155.7998" x2="155.7998" y1="535.8174" y2="567.8945"/><polygon fill="#181818" points="151.7998,557.8945,155.7998,567.8945,159.7998,557.8945,155.7998,561.8945" style="stroke:#181818;stroke-width:1;"/><line style="stroke:#181818;stroke-width:1;" x1="155.7998" x2="155.7998" y1="367.1523" y2="387.1523"/><polygon fill="#181818" points="151.7998,377.1523,155.7998,387.1523,159.7998,377.1523,155.7998,381.1523" style="stroke:#181818;stroke-width:1;"/><line style="stroke:#181818;stroke-width:1;" x1="206.6475" x2="447.8726" y1="645.1924" y2="645.1924"/><polygon fill="#181818" points="443.8726,490.707,447.8726,480.707,451.8726,490.707,447.8726,486.707" style="stroke:#181818;stroke-width:1;"/><line style="stroke:#181818;stroke-width:1;" x1="447.8726" x2="447.8726" y1="351.2637" y2="645.1924"/><line style="stroke:#181818;stroke-width:1;" x1="447.8726" x2="208.3706" y1="351.2637" y2="351.2637"/><polygon fill="#181818" points="218.3706,347.2637,208.3706,351.2637,218.3706,355.2637,214.3706,351.2637" style="stroke:#181818;stroke-width:1;"/><line style="stroke:#181818;stroke-width:1;" x1="155.7998" x2="155.7998" y1="591.8945" y2="633.1924"/><polygon fill="#181818" points="151.7998,623.1924,155.7998,633.1924,159.7998,623.1924,155.7998,627.1924" style="stroke:#181818;stroke-width:1;"/><text fill="#000000" font-family="sans-serif" font-size="11" lengthAdjust="spacing" textLength="13.5835" x="159.7998" y="613.3496">no</text><line style="stroke:#181818;stroke-width:1;" x1="155.7998" x2="155.7998" y1="288.8867" y2="335.375"/><polygon fill="#181818" points="151.7998,325.375,155.7998,335.375,159.7998,325.375,155.7998,329.375" style="stroke:#181818;stroke-width:1;"/><line style="stroke:#181818;stroke-width:1;" x1="155.7998" x2="155.7998" y1="657.1924" y2="708.8271"/><polygon fill="#181818" points="151.7998,698.8271,155.7998,708.8271,159.7998,698.8271,155.7998,702.8271" style="stroke:#181818;stroke-width:1;"/><text fill="#000000" font-family="sans-serif" font-size="11" lengthAdjust="spacing" textLength="13.5835" x="159.7998" y="687.3271">no</text><line style="stroke:#181818;stroke-width:1;" x1="155.7998" x2="155.7998" y1="740.6045" y2="760.6045"/><polygon fill="#181818" points="151.7998,750.6045,155.7998,760.6045,159.7998,750.6045,155.7998,754.6045" style="stroke:#181818;stroke-width:1;"/><line style="stroke:#181818;stroke-width:1;" x1="155.7998" x2="155.7998" y1="792.3818" y2="812.3818"/><polygon fill="#181818" points="151.7998,802.3818,155.7998,812.3818,159.7998,802.3818,155.7998,806.3818" style="stroke:#181818;stroke-width:1;"/><line style="stroke:#181818;stroke-width:1;" x1="155.7998" x2="155.7998" y1="844.1592" y2="864.1592"/><polygon fill="#181818" points="151.7998,854.1592,155.7998,864.1592,159.7998,854.1592,155.7998,858.1592" style="stroke:#181818;stroke-width:1;"/><!--SRC=[RLB1QXj13BtFLuZaOaCA3fGGrj12DtLFXK9wD-gkF2ioExDej0vkwRzNCzuq3cGF2wFttinxal8Jnma5Hy1E-SXwWZyExFk2tPENDCU-JI49N7-ztttStP-n93t9KjzixkxQjjPtAUeZ_oQutRY_pcL5KUUQ7oYPe4lZYB67m940nSyZHSrRrtmZ1OzZOSG3-rbGEKK3MY5KgjZhoQxvnR5Im5CaOoTvXNCAHxApir3AbNNrKv0ZHtzLembDneHcP-O9km5OwUL9WFS85qzkQyxwQpBfFEsBk_qpwx2_eArAzUPIk3uh6_DY_l8v5QWGdO6OpBom7xGUYujkbin7ksQUUekMhUI5D2-45aEW7WxcSWfu8e7DpGBfGF4IkArrikQNPruYB3cV1mu4g-z9tZGtVru3PrYTAA-D_E6JQMk3tf7zx-0RqIAnHMZCQpU7Cf-I7htDIKr1_cIJUo2JZsKhnjHJW4EvU48T37iq_bBML95jsQiqkNy0]--></g></svg>