<svg xmlns="http://www.w3.org/2000/svg" xmlns:xlink="http://www.w3.org/1999/xlink" contentStyleType="text/css" data-diagram-type="ACTIVITY" height="1647px" preserveAspectRatio="none" style="width:1509px;height:1647px;background:#FFFFFF;" version="1.1" viewBox="0 0 1509 1647" width="1509px" zoomAndPan="magnify"><defs/><g><rect fill="none" height="1625.4971" style="stroke:#000000;stroke-width:1.5;" width="1487.1155" x="11" y="11"/><path d="M156.7822,11 L156.7822,20.4883 L146.7822,30.4883 L11,30.4883" fill="none" style="stroke:#000000;stroke-width:1.5;"/><text fill="#000000" font-family="sans-serif" font-size="14" lengthAdjust="spacing" textLength="135.7822" x="14" y="25.5352">Traverse Game Tree</text><ellipse cx="446.3546" cy="50.4883" fill="#222222" rx="10" ry="10" style="stroke:#222222;stroke-width:1;"/><polygon fill="#E8F4F8" points="404.8556,80.4883,487.8536,80.4883,499.8536,92.4883,487.8536,104.4883,404.8556,104.4883,392.8556,92.4883,404.8556,80.4883" style="stroke:#0066CC;stroke-width:0.5;"/><text fill="#000000" font-family="sans-serif" font-size="10" lengthAdjust="spacing" textLength="82.998" x="404.8556" y="96.2676">is terminal node?</text><text fill="#000000" font-family="sans-serif" font-size="11" lengthAdjust="spacing" textLength="17.4829" x="375.3727" y="90.168">yes</text><text fill="#000000" font-family="sans-serif" font-size="11" lengthAdjust="spacing" textLength="13.5835" x="499.8536" y="90.168">no</text><path d="M141.0859,114.4883 L141.0859,130.7988 L121.0859,134.7988 L141.0859,138.7988 L141.0859,155.1094 A0,0 0 0 0 141.0859,155.1094 L333.7964,155.1094 A0,0 0 0 0 333.7964,155.1094 L333.7964,124.4883 L323.7964,114.4883 L141.0859,114.4883 A0,0 0 0 0 141.0859,114.4883" fill="#FEFFDD" style="stroke:#181818;stroke-width:0.5;"/><path d="M323.7964,114.4883 L323.7964,124.4883 L333.7964,124.4883 L323.7964,114.4883" fill="#FEFFDD" style="stroke:#181818;stroke-width:0.5;"/><text fill="#000000" font-family="sans-serif" font-size="13" lengthAdjust="spacing" textLength="171.7104" x="147.0859" y="132.0566">Base Case - ends recursion</text><text fill="#000000" font-family="sans-serif" font-size="13" lengthAdjust="spacing" textLength="129.3081" x="147.0859" y="147.3672">Returns payoff value</text><rect fill="#E8F4F8" height="31.7773" rx="12.5" ry="12.5" style="stroke:#0066CC;stroke-width:0.5;" width="98.0859" x="23" y="118.9102"/><text fill="#000000" font-family="sans-serif" font-size="10" lengthAdjust="spacing" textLength="78.0859" x="33" y="138.5781">Calculate payoff</text><ellipse cx="72.043" cy="214.0645" fill="none" rx="11" ry="11" style="stroke:#222222;stroke-width:1;"/><ellipse cx="72.043" cy="214.0645" fill="#222222" rx="6" ry="6" style="stroke:#222222;stroke-width:1;"/><polygon fill="#E8F4F8" points="808.8005,114.4883,888.532,114.4883,900.532,126.4883,888.532,138.4883,808.8005,138.4883,796.8005,126.4883,808.8005,114.4883" style="stroke:#0066CC;stroke-width:0.5;"/><text fill="#000000" font-family="sans-serif" font-size="10" lengthAdjust="spacing" textLength="79.7314" x="808.8005" y="130.2676">is player's node?</text><text fill="#000000" font-family="sans-serif" font-size="11" lengthAdjust="spacing" textLength="100.7617" x="696.0388" y="124.168">yes - Player's node</text><text fill="#000000" font-family="sans-serif" font-size="11" lengthAdjust="spacing" textLength="118.1963" x="900.532" y="124.168">no - Opponent's node</text><rect fill="none" height="307.9082" style="stroke:#000000;stroke-width:1.5;" width="377.2295" x="343.7964" y="148.4883"/><path d="M493.5161,148.4883 L493.5161,157.9766 L483.5161,167.9766 L343.7964,167.9766" fill="none" style="stroke:#000000;stroke-width:1.5;"/><text fill="#000000" font-family="sans-serif" font-size="14" lengthAdjust="spacing" textLength="139.7197" x="346.7964" y="163.0234">get_current_strategy</text><rect fill="#E8F4F8" height="31.7773" rx="12.5" ry="12.5" style="stroke:#0066CC;stroke-width:0.5;" width="143.5303" x="477.1038" y="184.9766"/><text fill="#000000" font-family="sans-serif" font-size="10" lengthAdjust="spacing" textLength="123.5303" x="487.1038" y="204.6445">Get regrets for all actions</text><rect fill="#E8F4F8" height="31.7773" rx="12.5" ry="12.5" style="stroke:#0066CC;stroke-width:0.5;" width="142.915" x="477.4114" y="245.0645"/><text fill="#000000" font-family="sans-serif" font-size="10" lengthAdjust="spacing" textLength="122.915" x="487.4114" y="264.7324">Calculate positive regrets</text><rect fill="#E8F4F8" height="31.7773" rx="12.5" ry="12.5" style="stroke:#0066CC;stroke-width:0.5;" width="119.458" x="489.1399" y="296.8418"/><text fill="#000000" font-family="sans-serif" font-size="10" lengthAdjust="spacing" textLength="99.458" x="499.1399" y="316.5098">Sum positive regrets</text><polygon fill="#E8F4F8" points="526.1394,348.6191,571.5984,348.6191,583.5984,360.6191,571.5984,372.6191,526.1394,372.6191,514.1394,360.6191,526.1394,348.6191" style="stroke:#0066CC;stroke-width:0.5;"/><text fill="#000000" font-family="sans-serif" font-size="10" lengthAdjust="spacing" textLength="45.459" x="526.1394" y="364.3984">sum &gt; 0?</text><text fill="#000000" font-family="sans-serif" font-size="11" lengthAdjust="spacing" textLength="17.4829" x="496.6565" y="358.2988">yes</text><text fill="#000000" font-family="sans-serif" font-size="11" lengthAdjust="spacing" textLength="13.5835" x="583.5984" y="358.2988">no</text><rect fill="#E8F4F8" height="31.7773" rx="12.5" ry="12.5" style="stroke:#0066CC;stroke-width:0.5;" width="203.5303" x="355.7964" y="382.6191"/><text fill="#000000" font-family="sans-serif" font-size="10" lengthAdjust="spacing" textLength="183.5303" x="365.7964" y="402.2871">Normalize positive regrets to strategy</text><rect fill="#E8F4F8" height="31.7773" rx="12.5" ry="12.5" style="stroke:#0066CC;stroke-width:0.5;" width="121.6992" x="579.3267" y="382.6191"/><text fill="#000000" font-family="sans-serif" font-size="10" lengthAdjust="spacing" textLength="101.6992" x="589.3267" y="402.2871">Use uniform strategy</text><polygon fill="#E8F4F8" points="548.8689,420.3965,560.8689,432.3965,548.8689,444.3965,536.8689,432.3965,548.8689,420.3965" style="stroke:#0066CC;stroke-width:0.5;"/><rect fill="#E8F4F8" height="31.7773" rx="12.5" ry="12.5" style="stroke:#0066CC;stroke-width:0.5;" width="193.5645" x="452.0867" y="528.1738"/><text fill="#000000" font-family="sans-serif" font-size="10" lengthAdjust="spacing" textLength="173.5645" x="462.0867" y="547.8418">Get action probability from strategy</text><rect fill="#E8F4F8" height="31.7773" rx="12.5" ry="12.5" style="stroke:#0066CC;stroke-width:0.5;" width="169.4189" x="464.1594" y="579.9512"/><text fill="#000000" font-family="sans-serif" font-size="10" lengthAdjust="spacing" textLength="149.4189" x="474.1594" y="599.6191">Process action with game logic</text><rect fill="#E8F4F8" height="31.7773" rx="12.5" ry="12.5" style="stroke:#0066CC;stroke-width:0.5;" width="255.8008" x="420.9685" y="631.7285"/><text fill="#000000" font-family="sans-serif" font-size="10" lengthAdjust="spacing" textLength="235.8008" x="430.9685" y="651.3965">Multiply reach probability with action probability</text><path d="M696.3835,698.5059 L696.3835,722.4717 L676.3835,726.4717 L696.3835,730.4717 L696.3835,754.4375 A0,0 0 0 0 696.3835,754.4375 L870.5208,754.4375 A0,0 0 0 0 870.5208,754.4375 L870.5208,708.5059 L860.5208,698.5059 L696.3835,698.5059 A0,0 0 0 0 696.3835,698.5059" fill="#FEFFDD" style="stroke:#181818;stroke-width:0.5;"/><path d="M860.5208,698.5059 L860.5208,708.5059 L870.5208,708.5059 L860.5208,698.5059" fill="#FEFFDD" style="stroke:#181818;stroke-width:0.5;"/><text fill="#000000" font-family="sans-serif" font-size="13" lengthAdjust="spacing" textLength="153.1372" x="702.3835" y="716.0742">Recursive call goes back</text><text fill="#000000" font-family="sans-serif" font-size="13" lengthAdjust="spacing" textLength="118.6631" x="702.3835" y="731.3848">to start of diagram</text><text fill="#000000" font-family="sans-serif" font-size="13" lengthAdjust="spacing" textLength="148.3003" x="702.3835" y="746.6953">Returns here with value</text><rect fill="#E8F4F8" height="31.7773" rx="12.5" ry="12.5" style="stroke:#0066CC;stroke-width:0.5;" width="255.0293" x="421.3542" y="710.583"/><text fill="#000000" font-family="sans-serif" font-size="10" lengthAdjust="spacing" textLength="235.0293" x="431.3542" y="730.251">traverse_game_tree(player_id, new_reach_probs)</text><rect fill="#E8F4F8" height="31.7773" rx="12.5" ry="12.5" style="stroke:#0066CC;stroke-width:0.5;" width="179.3604" x="459.1887" y="774.4375"/><text fill="#000000" font-family="sans-serif" font-size="10" lengthAdjust="spacing" textLength="159.3604" x="469.1887" y="794.1055">Accumulate weighted state value</text><rect fill="#E8F4F8" height="31.7773" rx="12.5" ry="12.5" style="stroke:#0066CC;stroke-width:0.5;" width="78.3594" x="509.6892" y="826.2148"/><text fill="#000000" font-family="sans-serif" font-size="10" lengthAdjust="spacing" textLength="58.3594" x="519.6892" y="845.8828">Undo action</text><rect fill="#E8F4F8" height="31.7773" rx="12.5" ry="12.5" style="stroke:#0066CC;stroke-width:0.5;" width="172.2266" x="462.7556" y="476.3965"/><text fill="#000000" font-family="sans-serif" font-size="10" lengthAdjust="spacing" textLength="152.2266" x="472.7556" y="496.0645">For each action in legal_actions</text><polygon fill="#E8F4F8" points="515.6072,899.3125,582.1306,899.3125,594.1306,911.3125,582.1306,923.3125,515.6072,923.3125,503.6072,911.3125,515.6072,899.3125" style="stroke:#0066CC;stroke-width:0.5;"/><text fill="#000000" font-family="sans-serif" font-size="10" lengthAdjust="spacing" textLength="66.5234" x="515.6072" y="915.0918">More actions?</text><text fill="#000000" font-family="sans-serif" font-size="11" lengthAdjust="spacing" textLength="17.4829" x="594.1306" y="908.9922">yes</text><rect fill="#E8F4F8" height="31.7773" rx="12.5" ry="12.5" style="stroke:#0066CC;stroke-width:0.5;" width="107.5049" x="495.1165" y="971.2676"/><text fill="#000000" font-family="sans-serif" font-size="10" lengthAdjust="spacing" textLength="87.5049" x="505.1165" y="990.9355">Return state value</text><ellipse cx="548.8689" cy="1034.0449" fill="none" rx="11" ry="11" style="stroke:#222222;stroke-width:1;"/><ellipse cx="548.8689" cy="1034.0449" fill="#222222" rx="6" ry="6" style="stroke:#222222;stroke-width:1;"/><rect fill="none" height="307.9082" style="stroke:#000000;stroke-width:1.5;" width="385.2295" x="935.3911" y="148.4883"/><path d="M1085.1108,148.4883 L1085.1108,157.9766 L1075.1108,167.9766 L935.3911,167.9766" fill="none" style="stroke:#000000;stroke-width:1.5;"/><text fill="#000000" font-family="sans-serif" font-size="14" lengthAdjust="spacing" textLength="139.7197" x="938.3911" y="163.0234">get_current_strategy</text><rect fill="#E8F4F8" height="31.7773" rx="12.5" ry="12.5" style="stroke:#0066CC;stroke-width:0.5;" width="143.5303" x="1076.6985" y="184.9766"/><text fill="#000000" font-family="sans-serif" font-size="10" lengthAdjust="spacing" textLength="123.5303" x="1086.6985" y="204.6445">Get regrets for all actions</text><rect fill="#E8F4F8" height="31.7773" rx="12.5" ry="12.5" style="stroke:#0066CC;stroke-width:0.5;" width="142.915" x="1077.0061" y="245.0645"/><text fill="#000000" font-family="sans-serif" font-size="10" lengthAdjust="spacing" textLength="122.915" x="1087.0061" y="264.7324">Calculate positive regrets</text><rect fill="#E8F4F8" height="31.7773" rx="12.5" ry="12.5" style="stroke:#0066CC;stroke-width:0.5;" width="119.458" x="1088.7346" y="296.8418"/><text fill="#000000" font-family="sans-serif" font-size="10" lengthAdjust="spacing" textLength="99.458" x="1098.7346" y="316.5098">Sum positive regrets</text><polygon fill="#E8F4F8" points="1125.7341,348.6191,1171.1931,348.6191,1183.1931,360.6191,1171.1931,372.6191,1125.7341,372.6191,1113.7341,360.6191,1125.7341,348.6191" style="stroke:#0066CC;stroke-width:0.5;"/><text fill="#000000" font-family="sans-serif" font-size="10" lengthAdjust="spacing" textLength="45.459" x="1125.7341" y="364.3984">sum &gt; 0?</text><text fill="#000000" font-family="sans-serif" font-size="11" lengthAdjust="spacing" textLength="17.4829" x="1096.2512" y="358.2988">yes</text><text fill="#000000" font-family="sans-serif" font-size="11" lengthAdjust="spacing" textLength="13.5835" x="1183.1931" y="358.2988">no</text><rect fill="#E8F4F8" height="31.7773" rx="12.5" ry="12.5" style="stroke:#0066CC;stroke-width:0.5;" width="203.5303" x="955.3911" y="382.6191"/><text fill="#000000" font-family="sans-serif" font-size="10" lengthAdjust="spacing" textLength="183.5303" x="965.3911" y="402.2871">Normalize positive regrets to strategy</text><rect fill="#E8F4F8" height="31.7773" rx="12.5" ry="12.5" style="stroke:#0066CC;stroke-width:0.5;" width="121.6992" x="1178.9214" y="382.6191"/><text fill="#000000" font-family="sans-serif" font-size="10" lengthAdjust="spacing" textLength="101.6992" x="1188.9214" y="402.2871">Use uniform strategy</text><polygon fill="#E8F4F8" points="1148.4636,420.3965,1160.4636,432.3965,1148.4636,444.3965,1136.4636,432.3965,1148.4636,420.3965" style="stroke:#0066CC;stroke-width:0.5;"/><rect fill="#E8F4F8" height="31.7773" rx="12.5" ry="12.5" style="stroke:#0066CC;stroke-width:0.5;" width="169.4189" x="1063.7542" y="528.1738"/><text fill="#000000" font-family="sans-serif" font-size="10" lengthAdjust="spacing" textLength="149.4189" x="1073.7542" y="547.8418">Process action with game logic</text><rect fill="#E8F4F8" height="31.7773" rx="12.5" ry="12.5" style="stroke:#0066CC;stroke-width:0.5;" width="255.8008" x="1020.5632" y="579.9512"/><text fill="#000000" font-family="sans-serif" font-size="10" lengthAdjust="spacing" textLength="235.8008" x="1030.5632" y="599.6191">Multiply reach probability with action probability</text><path d="M1295.9783,631.7285 L1295.9783,655.6943 L1275.9783,659.6943 L1295.9783,663.6943 L1295.9783,687.6602 A0,0 0 0 0 1295.9783,687.6602 L1470.1155,687.6602 A0,0 0 0 0 1470.1155,687.6602 L1470.1155,641.7285 L1460.1155,631.7285 L1295.9783,631.7285 A0,0 0 0 0 1295.9783,631.7285" fill="#FEFFDD" style="stroke:#181818;stroke-width:0.5;"/><path d="M1460.1155,631.7285 L1460.1155,641.7285 L1470.1155,641.7285 L1460.1155,631.7285" fill="#FEFFDD" style="stroke:#181818;stroke-width:0.5;"/><text fill="#000000" font-family="sans-serif" font-size="13" lengthAdjust="spacing" textLength="153.1372" x="1301.9783" y="649.2969">Recursive call goes back</text><text fill="#000000" font-family="sans-serif" font-size="13" lengthAdjust="spacing" textLength="118.6631" x="1301.9783" y="664.6074">to start of diagram</text><text fill="#000000" font-family="sans-serif" font-size="13" lengthAdjust="spacing" textLength="148.3003" x="1301.9783" y="679.918">Returns here with value</text><rect fill="#E8F4F8" height="31.7773" rx="12.5" ry="12.5" style="stroke:#0066CC;stroke-width:0.5;" width="255.0293" x="1020.949" y="643.8057"/><text fill="#000000" font-family="sans-serif" font-size="10" lengthAdjust="spacing" textLength="235.0293" x="1030.949" y="663.4736">traverse_game_tree(player_id, new_reach_probs)</text><rect fill="#E8F4F8" height="31.7773" rx="12.5" ry="12.5" style="stroke:#0066CC;stroke-width:0.5;" width="125.542" x="1085.6926" y="722.6602"/><text fill="#000000" font-family="sans-serif" font-size="10" lengthAdjust="spacing" textLength="105.542" x="1095.6926" y="742.3281">Store utility for action</text><rect fill="#E8F4F8" height="31.7773" rx="12.5" ry="12.5" style="stroke:#0066CC;stroke-width:0.5;" width="78.3594" x="1109.2839" y="774.4375"/><text fill="#000000" font-family="sans-serif" font-size="10" lengthAdjust="spacing" textLength="58.3594" x="1119.2839" y="794.1055">Undo action</text><rect fill="#E8F4F8" height="31.7773" rx="12.5" ry="12.5" style="stroke:#0066CC;stroke-width:0.5;" width="172.2266" x="1062.3503" y="476.3965"/><text fill="#000000" font-family="sans-serif" font-size="10" lengthAdjust="spacing" textLength="152.2266" x="1072.3503" y="496.0645">For each action in legal_actions</text><polygon fill="#E8F4F8" points="1115.2019,839.2148,1181.7253,839.2148,1193.7253,851.2148,1181.7253,863.2148,1115.2019,863.2148,1103.2019,851.2148,1115.2019,839.2148" style="stroke:#0066CC;stroke-width:0.5;"/><text fill="#000000" font-family="sans-serif" font-size="10" lengthAdjust="spacing" textLength="66.5234" x="1115.2019" y="854.9941">More actions?</text><text fill="#000000" font-family="sans-serif" font-size="11" lengthAdjust="spacing" textLength="17.4829" x="1193.7253" y="848.8945">yes</text><rect fill="#E8F4F8" height="31.7773" rx="12.5" ry="12.5" style="stroke:#0066CC;stroke-width:0.5;" width="367.8857" x="964.5208" y="904.4902"/><text fill="#000000" font-family="sans-serif" font-size="10" lengthAdjust="spacing" textLength="347.8857" x="974.5208" y="924.1582">Calculate expected utility: sum of action utilities weighted with strategy</text><rect fill="#E8F4F8" height="31.7773" rx="12.5" ry="12.5" style="stroke:#0066CC;stroke-width:0.5;" width="144.9756" x="1075.9758" y="971.2676"/><text fill="#000000" font-family="sans-serif" font-size="10" lengthAdjust="spacing" textLength="124.9756" x="1085.9758" y="990.9355">Get counterfactual weight</text><rect fill="#E8F4F8" height="31.7773" rx="12.5" ry="12.5" style="stroke:#0066CC;stroke-width:0.5;" width="154.4141" x="1071.2566" y="1023.0449"/><text fill="#000000" font-family="sans-serif" font-size="10" lengthAdjust="spacing" textLength="134.4141" x="1081.2566" y="1042.7129">Get player reach probability</text><rect fill="none" height="237.2646" style="stroke:#000000;stroke-width:1.5;" width="491.8857" x="914.5208" y="1064.8223"/><path d="M1026.759,1064.8223 L1026.759,1074.3105 L1016.759,1084.3105 L914.5208,1084.3105" fill="none" style="stroke:#000000;stroke-width:1.5;"/><text fill="#000000" font-family="sans-serif" font-size="14" lengthAdjust="spacing" textLength="102.2383" x="917.5208" y="1079.3574">update_regrets</text><rect fill="#E8F4F8" height="31.7773" rx="12.5" ry="12.5" style="stroke:#0066CC;stroke-width:0.5;" width="447.8857" x="924.5208" y="1153.0879"/><text fill="#000000" font-family="sans-serif" font-size="10" lengthAdjust="spacing" textLength="427.8857" x="934.5208" y="1172.7559">instantaneous_regret = counterfactual_weight * (action_utilities[action] - current_utility)</text><rect fill="#E8F4F8" height="31.7773" rx="12.5" ry="12.5" style="stroke:#0066CC;stroke-width:0.5;" width="302.2168" x="997.3552" y="1214.3096"/><text fill="#000000" font-family="sans-serif" font-size="10" lengthAdjust="spacing" textLength="282.2168" x="1007.3552" y="1233.9775">regret_sum[info_set_key][action] += instantaneous_regret</text><rect fill="#E8F4F8" height="31.7773" rx="12.5" ry="12.5" style="stroke:#0066CC;stroke-width:0.5;" width="172.2266" x="1062.3503" y="1101.3105"/><text fill="#000000" font-family="sans-serif" font-size="10" lengthAdjust="spacing" textLength="152.2266" x="1072.3503" y="1120.9785">For each action in legal_actions</text><polygon fill="#E8F4F8" points="1115.2019,1266.0869,1181.7253,1266.0869,1193.7253,1278.0869,1181.7253,1290.0869,1115.2019,1290.0869,1103.2019,1278.0869,1115.2019,1266.0869" style="stroke:#0066CC;stroke-width:0.5;"/><text fill="#000000" font-family="sans-serif" font-size="10" lengthAdjust="spacing" textLength="66.5234" x="1115.2019" y="1281.8662">More actions?</text><text fill="#000000" font-family="sans-serif" font-size="11" lengthAdjust="spacing" textLength="17.4829" x="1193.7253" y="1275.7666">yes</text><rect fill="none" height="176.043" style="stroke:#000000;stroke-width:1.5;" width="441.3242" x="939.8015" y="1335.042"/><path d="M1094.6892,1335.042 L1094.6892,1344.5303 L1084.6892,1354.5303 L939.8015,1354.5303" fill="none" style="stroke:#000000;stroke-width:1.5;"/><text fill="#000000" font-family="sans-serif" font-size="14" lengthAdjust="spacing" textLength="144.8877" x="942.8015" y="1349.5771">update_strategy_sum</text><rect fill="#E8F4F8" height="31.7773" rx="12.5" ry="12.5" style="stroke:#0066CC;stroke-width:0.5;" width="397.3242" x="949.8015" y="1423.3076"/><text fill="#000000" font-family="sans-serif" font-size="10" lengthAdjust="spacing" textLength="377.3242" x="959.8015" y="1442.9756">strategy_sum[info_set_key][action] += player_reach * current_strategy[action]</text><rect fill="#E8F4F8" height="31.7773" rx="12.5" ry="12.5" style="stroke:#0066CC;stroke-width:0.5;" width="172.2266" x="1062.3503" y="1371.5303"/><text fill="#000000" font-family="sans-serif" font-size="10" lengthAdjust="spacing" textLength="152.2266" x="1072.3503" y="1391.1982">For each action in legal_actions</text><polygon fill="#E8F4F8" points="1115.2019,1475.085,1181.7253,1475.085,1193.7253,1487.085,1181.7253,1499.085,1115.2019,1499.085,1103.2019,1487.085,1115.2019,1475.085" style="stroke:#0066CC;stroke-width:0.5;"/><text fill="#000000" font-family="sans-serif" font-size="10" lengthAdjust="spacing" textLength="66.5234" x="1115.2019" y="1490.8643">More actions?</text><text fill="#000000" font-family="sans-serif" font-size="11" lengthAdjust="spacing" textLength="17.4829" x="1193.7253" y="1484.7646">yes</text><rect fill="#E8F4F8" height="31.7773" rx="12.5" ry="12.5" style="stroke:#0066CC;stroke-width:0.5;" width="120.6836" x="1088.1218" y="1550.7197"/><text fill="#000000" font-family="sans-serif" font-size="10" lengthAdjust="spacing" textLength="100.6836" x="1098.1218" y="1570.3877">return current_utility</text><ellipse cx="1148.4636" cy="1613.4971" fill="none" rx="11" ry="11" style="stroke:#222222;stroke-width:1;"/><ellipse cx="1148.4636" cy="1613.4971" fill="#222222" rx="6" ry="6" style="stroke:#222222;stroke-width:1;"/><line style="stroke:#181818;stroke-width:1;" x1="72.043" x2="72.043" y1="150.6875" y2="203.0645"/><polygon fill="#181818" points="68.043,193.0645,72.043,203.0645,76.043,193.0645,72.043,197.0645" style="stroke:#181818;stroke-width:1;"/><text fill="#000000" font-family="sans-serif" font-size="11" lengthAdjust="spacing" textLength="40.7451" x="76.043" y="181.0332">(payoff)</text><line style="stroke:#181818;stroke-width:1;" x1="548.8689" x2="548.8689" y1="216.7539" y2="245.0645"/><polygon fill="#181818" points="544.8689,235.0645,548.8689,245.0645,552.8689,235.0645,548.8689,239.0645" style="stroke:#181818;stroke-width:1;"/><line style="stroke:#181818;stroke-width:1;" x1="548.8689" x2="548.8689" y1="276.8418" y2="296.8418"/><polygon fill="#181818" points="544.8689,286.8418,548.8689,296.8418,552.8689,286.8418,548.8689,290.8418" style="stroke:#181818;stroke-width:1;"/><line style="stroke:#181818;stroke-width:1;" x1="514.1394" x2="457.5615" y1="360.6191" y2="360.6191"/><line style="stroke:#181818;stroke-width:1;" x1="457.5615" x2="457.5615" y1="360.6191" y2="382.6191"/><polygon fill="#181818" points="453.5615,372.6191,457.5615,382.6191,461.5615,372.6191,457.5615,376.6191" style="stroke:#181818;stroke-width:1;"/><line style="stroke:#181818;stroke-width:1;" x1="583.5984" x2="640.1763" y1="360.6191" y2="360.6191"/><line style="stroke:#181818;stroke-width:1;" x1="640.1763" x2="640.1763" y1="360.6191" y2="382.6191"/><polygon fill="#181818" points="636.1763,372.6191,640.1763,382.6191,644.1763,372.6191,640.1763,376.6191" style="stroke:#181818;stroke-width:1;"/><line style="stroke:#181818;stroke-width:1;" x1="457.5615" x2="457.5615" y1="414.3965" y2="432.3965"/><line style="stroke:#181818;stroke-width:1;" x1="457.5615" x2="536.8689" y1="432.3965" y2="432.3965"/><polygon fill="#181818" points="526.8689,428.3965,536.8689,432.3965,526.8689,436.3965,530.8689,432.3965" style="stroke:#181818;stroke-width:1;"/><line style="stroke:#181818;stroke-width:1;" x1="640.1763" x2="640.1763" y1="414.3965" y2="432.3965"/><line style="stroke:#181818;stroke-width:1;" x1="640.1763" x2="560.8689" y1="432.3965" y2="432.3965"/><polygon fill="#181818" points="570.8689,428.3965,560.8689,432.3965,570.8689,436.3965,566.8689,432.3965" style="stroke:#181818;stroke-width:1;"/><line style="stroke:#181818;stroke-width:1;" x1="548.8689" x2="548.8689" y1="328.6191" y2="348.6191"/><polygon fill="#181818" points="544.8689,338.6191,548.8689,348.6191,552.8689,338.6191,548.8689,342.6191" style="stroke:#181818;stroke-width:1;"/><line style="stroke:#181818;stroke-width:1;" x1="548.8689" x2="548.8689" y1="559.9512" y2="579.9512"/><polygon fill="#181818" points="544.8689,569.9512,548.8689,579.9512,552.8689,569.9512,548.8689,573.9512" style="stroke:#181818;stroke-width:1;"/><line style="stroke:#181818;stroke-width:1;" x1="548.8689" x2="548.8689" y1="611.7285" y2="631.7285"/><polygon fill="#181818" points="544.8689,621.7285,548.8689,631.7285,552.8689,621.7285,548.8689,625.7285" style="stroke:#181818;stroke-width:1;"/><line style="stroke:#181818;stroke-width:1;" x1="548.8689" x2="548.8689" y1="663.5059" y2="710.583"/><polygon fill="#181818" points="544.8689,700.583,548.8689,710.583,552.8689,700.583,548.8689,704.583" style="stroke:#181818;stroke-width:1;"/><line style="stroke:#181818;stroke-width:1;" x1="548.8689" x2="548.8689" y1="742.3604" y2="774.4375"/><polygon fill="#181818" points="544.8689,764.4375,548.8689,774.4375,552.8689,764.4375,548.8689,768.4375" style="stroke:#181818;stroke-width:1;"/><line style="stroke:#181818;stroke-width:1;" x1="548.8689" x2="548.8689" y1="806.2148" y2="826.2148"/><polygon fill="#181818" points="544.8689,816.2148,548.8689,826.2148,552.8689,816.2148,548.8689,820.2148" style="stroke:#181818;stroke-width:1;"/><line style="stroke:#181818;stroke-width:1;" x1="548.8689" x2="548.8689" y1="508.1738" y2="528.1738"/><polygon fill="#181818" points="544.8689,518.1738,548.8689,528.1738,552.8689,518.1738,548.8689,522.1738" style="stroke:#181818;stroke-width:1;"/><line style="stroke:#181818;stroke-width:1;" x1="594.1306" x2="882.5208" y1="911.3125" y2="911.3125"/><polygon fill="#181818" points="878.5208,701.1387,882.5208,691.1387,886.5208,701.1387,882.5208,697.1387" style="stroke:#181818;stroke-width:1;"/><line style="stroke:#181818;stroke-width:1;" x1="882.5208" x2="882.5208" y1="492.2852" y2="911.3125"/><line style="stroke:#181818;stroke-width:1;" x1="882.5208" x2="634.9822" y1="492.2852" y2="492.2852"/><polygon fill="#181818" points="644.9822,488.2852,634.9822,492.2852,644.9822,496.2852,640.9822,492.2852" style="stroke:#181818;stroke-width:1;"/><line style="stroke:#181818;stroke-width:1;" x1="548.8689" x2="548.8689" y1="857.9922" y2="899.3125"/><polygon fill="#181818" points="544.8689,889.3125,548.8689,899.3125,552.8689,889.3125,548.8689,893.3125" style="stroke:#181818;stroke-width:1;"/><line style="stroke:#181818;stroke-width:1;" x1="548.8689" x2="548.8689" y1="444.3965" y2="476.3965"/><polygon fill="#181818" points="544.8689,466.3965,548.8689,476.3965,552.8689,466.3965,548.8689,470.3965" style="stroke:#181818;stroke-width:1;"/><line style="stroke:#181818;stroke-width:1;" x1="548.8689" x2="548.8689" y1="923.3125" y2="971.2676"/><polygon fill="#181818" points="544.8689,961.2676,548.8689,971.2676,552.8689,961.2676,548.8689,965.2676" style="stroke:#181818;stroke-width:1;"/><text fill="#000000" font-family="sans-serif" font-size="11" lengthAdjust="spacing" textLength="13.5835" x="552.8689" y="951.4473">no</text><line style="stroke:#181818;stroke-width:1;" x1="548.8689" x2="548.8689" y1="1003.0449" y2="1023.0449"/><polygon fill="#181818" points="544.8689,1013.0449,548.8689,1023.0449,552.8689,1013.0449,548.8689,1017.0449" style="stroke:#181818;stroke-width:1;"/><line style="stroke:#181818;stroke-width:1;" x1="1148.4636" x2="1148.4636" y1="216.7539" y2="245.0645"/><polygon fill="#181818" points="1144.4636,235.0645,1148.4636,245.0645,1152.4636,235.0645,1148.4636,239.0645" style="stroke:#181818;stroke-width:1;"/><line style="stroke:#181818;stroke-width:1;" x1="1148.4636" x2="1148.4636" y1="276.8418" y2="296.8418"/><polygon fill="#181818" points="1144.4636,286.8418,1148.4636,296.8418,1152.4636,286.8418,1148.4636,290.8418" style="stroke:#181818;stroke-width:1;"/><line style="stroke:#181818;stroke-width:1;" x1="1113.7341" x2="1057.1563" y1="360.6191" y2="360.6191"/><line style="stroke:#181818;stroke-width:1;" x1="1057.1563" x2="1057.1563" y1="360.6191" y2="382.6191"/><polygon fill="#181818" points="1053.1563,372.6191,1057.1563,382.6191,1061.1563,372.6191,1057.1563,376.6191" style="stroke:#181818;stroke-width:1;"/><line style="stroke:#181818;stroke-width:1;" x1="1183.1931" x2="1239.771" y1="360.6191" y2="360.6191"/><line style="stroke:#181818;stroke-width:1;" x1="1239.771" x2="1239.771" y1="360.6191" y2="382.6191"/><polygon fill="#181818" points="1235.771,372.6191,1239.771,382.6191,1243.771,372.6191,1239.771,376.6191" style="stroke:#181818;stroke-width:1;"/><line style="stroke:#181818;stroke-width:1;" x1="1057.1563" x2="1057.1563" y1="414.3965" y2="432.3965"/><line style="stroke:#181818;stroke-width:1;" x1="1057.1563" x2="1136.4636" y1="432.3965" y2="432.3965"/><polygon fill="#181818" points="1126.4636,428.3965,1136.4636,432.3965,1126.4636,436.3965,1130.4636,432.3965" style="stroke:#181818;stroke-width:1;"/><line style="stroke:#181818;stroke-width:1;" x1="1239.771" x2="1239.771" y1="414.3965" y2="432.3965"/><line style="stroke:#181818;stroke-width:1;" x1="1239.771" x2="1160.4636" y1="432.3965" y2="432.3965"/><polygon fill="#181818" points="1170.4636,428.3965,1160.4636,432.3965,1170.4636,436.3965,1166.4636,432.3965" style="stroke:#181818;stroke-width:1;"/><line style="stroke:#181818;stroke-width:1;" x1="1148.4636" x2="1148.4636" y1="328.6191" y2="348.6191"/><polygon fill="#181818" points="1144.4636,338.6191,1148.4636,348.6191,1152.4636,338.6191,1148.4636,342.6191" style="stroke:#181818;stroke-width:1;"/><line style="stroke:#181818;stroke-width:1;" x1="1148.4636" x2="1148.4636" y1="559.9512" y2="579.9512"/><polygon fill="#181818" points="1144.4636,569.9512,1148.4636,579.9512,1152.4636,569.9512,1148.4636,573.9512" style="stroke:#181818;stroke-width:1;"/><line style="stroke:#181818;stroke-width:1;" x1="1148.4636" x2="1148.4636" y1="611.7285" y2="643.8057"/><polygon fill="#181818" points="1144.4636,633.8057,1148.4636,643.8057,1152.4636,633.8057,1148.4636,637.8057" style="stroke:#181818;stroke-width:1;"/><line style="stroke:#181818;stroke-width:1;" x1="1148.4636" x2="1148.4636" y1="675.583" y2="722.6602"/><polygon fill="#181818" points="1144.4636,712.6602,1148.4636,722.6602,1152.4636,712.6602,1148.4636,716.6602" style="stroke:#181818;stroke-width:1;"/><line style="stroke:#181818;stroke-width:1;" x1="1148.4636" x2="1148.4636" y1="754.4375" y2="774.4375"/><polygon fill="#181818" points="1144.4636,764.4375,1148.4636,774.4375,1152.4636,764.4375,1148.4636,768.4375" style="stroke:#181818;stroke-width:1;"/><line style="stroke:#181818;stroke-width:1;" x1="1148.4636" x2="1148.4636" y1="508.1738" y2="528.1738"/><polygon fill="#181818" points="1144.4636,518.1738,1148.4636,528.1738,1152.4636,518.1738,1148.4636,522.1738" style="stroke:#181818;stroke-width:1;"/><line style="stroke:#181818;stroke-width:1;" x1="1193.7253" x2="1482.1155" y1="851.2148" y2="851.2148"/><polygon fill="#181818" points="1478.1155,667.75,1482.1155,657.75,1486.1155,667.75,1482.1155,663.75" style="stroke:#181818;stroke-width:1;"/><line style="stroke:#181818;stroke-width:1;" x1="1482.1155" x2="1482.1155" y1="492.2852" y2="851.2148"/><line style="stroke:#181818;stroke-width:1;" x1="1482.1155" x2="1234.5769" y1="492.2852" y2="492.2852"/><polygon fill="#181818" points="1244.5769,488.2852,1234.5769,492.2852,1244.5769,496.2852,1240.5769,492.2852" style="stroke:#181818;stroke-width:1;"/><line style="stroke:#181818;stroke-width:1;" x1="1148.4636" x2="1148.4636" y1="806.2148" y2="839.2148"/><polygon fill="#181818" points="1144.4636,829.2148,1148.4636,839.2148,1152.4636,829.2148,1148.4636,833.2148" style="stroke:#181818;stroke-width:1;"/><line style="stroke:#181818;stroke-width:1;" x1="1148.4636" x2="1148.4636" y1="444.3965" y2="476.3965"/><polygon fill="#181818" points="1144.4636,466.3965,1148.4636,476.3965,1152.4636,466.3965,1148.4636,470.3965" style="stroke:#181818;stroke-width:1;"/><line style="stroke:#181818;stroke-width:1;" x1="1148.4636" x2="1148.4636" y1="863.2148" y2="904.4902"/><polygon fill="#181818" points="1144.4636,894.4902,1148.4636,904.4902,1152.4636,894.4902,1148.4636,898.4902" style="stroke:#181818;stroke-width:1;"/><text fill="#000000" font-family="sans-serif" font-size="11" lengthAdjust="spacing" textLength="13.5835" x="1152.4636" y="884.6699">no</text><line style="stroke:#181818;stroke-width:1;" x1="1148.4636" x2="1148.4636" y1="936.2676" y2="971.2676"/><polygon fill="#181818" points="1144.4636,961.2676,1148.4636,971.2676,1152.4636,961.2676,1148.4636,965.2676" style="stroke:#181818;stroke-width:1;"/><line style="stroke:#181818;stroke-width:1;" x1="1148.4636" x2="1148.4636" y1="1003.0449" y2="1023.0449"/><polygon fill="#181818" points="1144.4636,1013.0449,1148.4636,1023.0449,1152.4636,1013.0449,1148.4636,1017.0449" style="stroke:#181818;stroke-width:1;"/><line style="stroke:#181818;stroke-width:1;" x1="1148.4636" x2="1148.4636" y1="1184.8652" y2="1214.3096"/><polygon fill="#181818" points="1144.4636,1204.3096,1148.4636,1214.3096,1152.4636,1204.3096,1148.4636,1208.3096" style="stroke:#181818;stroke-width:1;"/><line style="stroke:#181818;stroke-width:1;" x1="1148.4636" x2="1148.4636" y1="1133.0879" y2="1153.0879"/><polygon fill="#181818" points="1144.4636,1143.0879,1148.4636,1153.0879,1152.4636,1143.0879,1148.4636,1147.0879" style="stroke:#181818;stroke-width:1;"/><line style="stroke:#181818;stroke-width:1;" x1="1193.7253" x2="1384.4065" y1="1278.0869" y2="1278.0869"/><polygon fill="#181818" points="1380.4065,1204.8652,1384.4065,1194.8652,1388.4065,1204.8652,1384.4065,1200.8652" style="stroke:#181818;stroke-width:1;"/><line style="stroke:#181818;stroke-width:1;" x1="1384.4065" x2="1384.4065" y1="1117.1992" y2="1278.0869"/><line style="stroke:#181818;stroke-width:1;" x1="1384.4065" x2="1234.5769" y1="1117.1992" y2="1117.1992"/><polygon fill="#181818" points="1244.5769,1113.1992,1234.5769,1117.1992,1244.5769,1121.1992,1240.5769,1117.1992" style="stroke:#181818;stroke-width:1;"/><line style="stroke:#181818;stroke-width:1;" x1="1148.4636" x2="1148.4636" y1="1246.0869" y2="1266.0869"/><polygon fill="#181818" points="1144.4636,1256.0869,1148.4636,1266.0869,1152.4636,1256.0869,1148.4636,1260.0869" style="stroke:#181818;stroke-width:1;"/><line style="stroke:#181818;stroke-width:1;" x1="1148.4636" x2="1148.4636" y1="1054.8223" y2="1101.3105"/><polygon fill="#181818" points="1144.4636,1091.3105,1148.4636,1101.3105,1152.4636,1091.3105,1148.4636,1095.3105" style="stroke:#181818;stroke-width:1;"/><line style="stroke:#181818;stroke-width:1;" x1="1148.4636" x2="1148.4636" y1="1403.3076" y2="1423.3076"/><polygon fill="#181818" points="1144.4636,1413.3076,1148.4636,1423.3076,1152.4636,1413.3076,1148.4636,1417.3076" style="stroke:#181818;stroke-width:1;"/><line style="stroke:#181818;stroke-width:1;" x1="1193.7253" x2="1359.1257" y1="1487.085" y2="1487.085"/><polygon fill="#181818" points="1355.1257,1447.252,1359.1257,1437.252,1363.1257,1447.252,1359.1257,1443.252" style="stroke:#181818;stroke-width:1;"/><line style="stroke:#181818;stroke-width:1;" x1="1359.1257" x2="1359.1257" y1="1387.4189" y2="1487.085"/><line style="stroke:#181818;stroke-width:1;" x1="1359.1257" x2="1234.5769" y1="1387.4189" y2="1387.4189"/><polygon fill="#181818" points="1244.5769,1383.4189,1234.5769,1387.4189,1244.5769,1391.4189,1240.5769,1387.4189" style="stroke:#181818;stroke-width:1;"/><line style="stroke:#181818;stroke-width:1;" x1="1148.4636" x2="1148.4636" y1="1455.085" y2="1475.085"/><polygon fill="#181818" points="1144.4636,1465.085,1148.4636,1475.085,1152.4636,1465.085,1148.4636,1469.085" style="stroke:#181818;stroke-width:1;"/><line style="stroke:#181818;stroke-width:1;" x1="1148.4636" x2="1148.4636" y1="1290.0869" y2="1371.5303"/><polygon fill="#181818" points="1144.4636,1361.5303,1148.4636,1371.5303,1152.4636,1361.5303,1148.4636,1365.5303" style="stroke:#181818;stroke-width:1;"/><text fill="#000000" font-family="sans-serif" font-size="11" lengthAdjust="spacing" textLength="13.5835" x="1152.4636" y="1323.542">no</text><line style="stroke:#181818;stroke-width:1;" x1="1148.4636" x2="1148.4636" y1="1499.085" y2="1550.7197"/><polygon fill="#181818" points="1144.4636,1540.7197,1148.4636,1550.7197,1152.4636,1540.7197,1148.4636,1544.7197" style="stroke:#181818;stroke-width:1;"/><text fill="#000000" font-family="sans-serif" font-size="11" lengthAdjust="spacing" textLength="13.5835" x="1152.4636" y="1529.2197">no</text><line style="stroke:#181818;stroke-width:1;" x1="1148.4636" x2="1148.4636" y1="1582.4971" y2="1602.4971"/><polygon fill="#181818" points="1144.4636,1592.4971,1148.4636,1602.4971,1152.4636,1592.4971,1148.4636,1596.4971" style="stroke:#181818;stroke-width:1;"/><line style="stroke:#181818;stroke-width:1;" x1="796.8005" x2="548.8689" y1="126.4883" y2="126.4883"/><line style="stroke:#181818;stroke-width:1;" x1="548.8689" x2="548.8689" y1="126.4883" y2="184.9766"/><polygon fill="#181818" points="544.8689,174.9766,548.8689,184.9766,552.8689,174.9766,548.8689,178.9766" style="stroke:#181818;stroke-width:1;"/><line style="stroke:#181818;stroke-width:1;" x1="900.532" x2="1148.4636" y1="126.4883" y2="126.4883"/><line style="stroke:#181818;stroke-width:1;" x1="1148.4636" x2="1148.4636" y1="126.4883" y2="184.9766"/><polygon fill="#181818" points="1144.4636,174.9766,1148.4636,184.9766,1152.4636,174.9766,1148.4636,178.9766" style="stroke:#181818;stroke-width:1;"/><line style="stroke:#181818;stroke-width:1;" x1="392.8556" x2="72.043" y1="92.4883" y2="92.4883"/><line style="stroke:#181818;stroke-width:1;" x1="72.043" x2="72.043" y1="92.4883" y2="118.9102"/><polygon fill="#181818" points="68.043,108.9102,72.043,118.9102,76.043,108.9102,72.043,112.9102" style="stroke:#181818;stroke-width:1;"/><line style="stroke:#181818;stroke-width:1;" x1="499.8536" x2="848.6663" y1="92.4883" y2="92.4883"/><line style="stroke:#181818;stroke-width:1;" x1="848.6663" x2="848.6663" y1="92.4883" y2="114.4883"/><polygon fill="#181818" points="844.6663,104.4883,848.6663,114.4883,852.6663,104.4883,848.6663,108.4883" style="stroke:#181818;stroke-width:1;"/><line style="stroke:#181818;stroke-width:1;" x1="446.3546" x2="446.3546" y1="60.4883" y2="80.4883"/><polygon fill="#181818" points="442.3546,70.4883,446.3546,80.4883,450.3546,70.4883,446.3546,74.4883" style="stroke:#181818;stroke-width:1;"/><!--SRC=[xLLTJzim57tFhxXY3slPa3ffGgWLJ5kryiI61ZmX59da9hLmxSXssdLJ__kkFvAcAKn3un64hDg-7-VUUuvZ7hYic6OBO9dbIsxNy3i1-ll2ieTIgrhcKoMKXZTVJsOVPoVXJkaSTJmVZOwFfrD_FbFINl5V21z6oIP9AAxbbYi91zUQBL4RX7EsGBZMY0S-Zx5aaoIyW04tO54lk6G2fChnqn3i72KCrcY6P3gUCf7LWbc4YgrLKKpeyEWC1c4tT5kfw5RpScvZ3PHnwfOZG9aRq9ZLsX0YV_q3RQsbYU5WoKIDT46MFf27fwe41GKOIEL0HA2LO6lKRyqUK4fqsRqR-aITHfHeKyAWKThKM4tLbEk3s7AgyHmjWImrMWC5TPS9uGUZf9aqDfq-A4DXbzYuj2PNzUB9IrU2eVip6FLR7Bs_ARrWmisn7mEiWWPr4w_RdXZWXavgoQc0nRwvp7dXVs_ykbqqLiWiZ6TKDx9i7Wi7Ba5WoKJQRuHhLhIfjBfdzrmu_XPQxQSTNsgLeJ6DmuhREPIEZ4ALF6lDBcfXUINMXCP1wCRrBllvMbSREPwwiAabZWy2JrAUlmU9gzJ7J9sl6JPkFSe6NdgMKjipD_zI4Q_kIOwjWPy2SGfK0Jbd9Sctunn8FKUD0NB3wzZzXjiUy-SignU1J2jq831teMdhlThQRcIkOksJxh1MSove-XUAaiNn4Ab88LjAaKIbccp7F0u8zzDuiMtvH5BwNbLAab9UnVGSCJrRHw_IU4mQLzQHkhRnKN7ywV3_XJMnfI7-h31pCeoPn-3uHTN4zePZJdMtWlMbx5B3Sp-ZhpTzKWlohEcZ6kmxzs44- -Fi0Ek8hQvoIf16ycvbzbowKN8kQKQI_b7L9aQ4qnxUDE25GnY426bR-cqukACdef5_xDQmaoN4JQbzjrmMAZMqUS3rNUlzxXGUGpBPBUmVnhapqCtVkjTCoQ7whnPs0prTNXHPcF0XzD_AnlJbAgQc-yUzDvRT1zu_Mc7T97y0]--></g></svg>