<svg xmlns="http://www.w3.org/2000/svg" xmlns:xlink="http://www.w3.org/1999/xlink" contentStyleType="text/css" data-diagram-type="CLASS" height="805px" preserveAspectRatio="none" style="width:2500px;height:805px;background:#FFFFFF;" version="1.1" viewBox="0 0 2500 805" width="2500px" zoomAndPan="magnify"><defs/><g><!--cluster training--><g class="cluster" data-entity="training" data-source-line="10" data-uid="ent0002" id="cluster_training"><rect fill="none" height="553" rx="2.5" ry="2.5" style="stroke:#000000;stroke-width:1.5;" width="1604.78" x="7" y="7"/><text fill="#000000" font-family="sans-serif" font-size="14" font-weight="bold" lengthAdjust="spacing" textLength="56.998" x="780.891" y="22.5352">training</text></g><!--cluster utils--><g class="cluster" data-entity="utils" data-source-line="59" data-uid="ent0007" id="cluster_utils"><rect fill="none" height="389" rx="2.5" ry="2.5" style="stroke:#000000;stroke-width:1.5;" width="858.88" x="1635.78" y="410"/><text fill="#000000" font-family="sans-serif" font-size="14" font-weight="bold" lengthAdjust="spacing" textLength="31.8896" x="2049.2752" y="425.5352">utils</text></g><!--class CFRSolver--><g class="entity" data-entity="CFRSolver" data-source-line="12" data-uid="ent0003" id="entity_CFRSolver"><rect fill="#F1F1F1" height="410.7422" rx="2.5" ry="2.5" style="stroke:#181818;stroke-width:0.5;" width="688.0674" x="151.64" y="125.63"/><ellipse cx="467.493" cy="141.63" fill="#ADD1B2" rx="11" ry="11" style="stroke:#181818;stroke-width:1;"/><path d="M469.9662,147.7731 Q469.3851,148.0719 468.746,148.2213 Q468.1068,148.3707 467.4012,148.3707 Q464.8944,148.3707 463.5746,146.7189 Q462.2547,145.067 462.2547,141.9459 Q462.2547,138.8165 463.5746,137.1647 Q464.8944,135.5128 467.4012,135.5128 Q468.1068,135.5128 468.7543,135.6622 Q469.4017,135.8116 469.9662,136.1105 L469.9662,138.8331 Q469.3353,138.2521 468.7418,137.9823 Q468.1483,137.7125 467.5174,137.7125 Q466.1727,137.7125 465.4879,138.7792 Q464.8031,139.8458 464.8031,141.9459 Q464.8031,144.0377 465.4879,145.1044 Q466.1727,146.171 467.5174,146.171 Q468.1483,146.171 468.7418,145.9012 Q469.3353,145.6315 469.9662,145.0504 Z " fill="#000000"/><text fill="#000000" font-family="sans-serif" font-size="10" lengthAdjust="spacing" textLength="47.8613" x="487.993" y="145.4093">CFRSolver</text><line style="stroke:#181818;stroke-width:0.5;" x1="152.64" x2="838.7074" y1="157.63" y2="157.63"/><rect fill="none" height="6" style="stroke:#C82930;stroke-width:1;" width="6" x="159.64" y="168.3741"/><text fill="#000000" font-family="sans-serif" font-size="14" lengthAdjust="spacing" textLength="37.3311" x="171.64" y="175.1652">game</text><rect fill="none" height="6" style="stroke:#C82930;stroke-width:1;" width="6" x="159.64" y="184.8624"/><text fill="#000000" font-family="sans-serif" font-size="14" lengthAdjust="spacing" textLength="157.7324" x="171.64" y="191.6534">combination_generator</text><rect fill="none" height="6" style="stroke:#C82930;stroke-width:1;" width="6" x="159.64" y="201.3507"/><text fill="#000000" font-family="sans-serif" font-size="14" lengthAdjust="spacing" textLength="91.8271" x="171.64" y="208.1417">combinations</text><rect fill="none" height="6" style="stroke:#C82930;stroke-width:1;" width="6" x="159.64" y="217.839"/><text fill="#000000" font-family="sans-serif" font-size="14" lengthAdjust="spacing" textLength="112.7178" x="171.64" y="224.63">regret_sum: Dict</text><rect fill="none" height="6" style="stroke:#C82930;stroke-width:1;" width="6" x="159.64" y="234.3273"/><text fill="#000000" font-family="sans-serif" font-size="14" lengthAdjust="spacing" textLength="126.6084" x="171.64" y="241.1183">strategy_sum: Dict</text><rect fill="none" height="6" style="stroke:#C82930;stroke-width:1;" width="6" x="159.64" y="250.8155"/><text fill="#000000" font-family="sans-serif" font-size="14" lengthAdjust="spacing" textLength="129.3291" x="171.64" y="257.6066">iteration_count: int</text><rect fill="none" height="6" style="stroke:#C82930;stroke-width:1;" width="6" x="159.64" y="267.3038"/><text fill="#000000" font-family="sans-serif" font-size="14" lengthAdjust="spacing" textLength="129.6709" x="171.64" y="274.0948">training_time: float</text><rect fill="none" height="6" style="stroke:#C82930;stroke-width:1;" width="6" x="159.64" y="283.7921"/><text fill="#000000" font-family="sans-serif" font-size="14" lengthAdjust="spacing" textLength="150.4795" x="171.64" y="290.5831">average_strategy: Dict</text><line style="stroke:#181818;stroke-width:0.5;" x1="152.64" x2="838.7074" y1="297.5363" y2="297.5363"/><ellipse cx="162.64" cy="311.2804" fill="#84BE84" rx="3" ry="3" style="stroke:#038048;stroke-width:1;"/><text fill="#000000" font-family="sans-serif" font-size="14" lengthAdjust="spacing" textLength="263.0469" x="171.64" y="315.0714">__init__(game, combination_generator)</text><ellipse cx="162.64" cy="327.7687" fill="#84BE84" rx="3" ry="3" style="stroke:#038048;stroke-width:1;"/><text fill="#000000" font-family="sans-serif" font-size="14" lengthAdjust="spacing" textLength="264.7422" x="171.64" y="331.5597">ensure_init(info_set_key, legal_actions)</text><ellipse cx="162.64" cy="344.257" fill="#84BE84" rx="3" ry="3" style="stroke:#038048;stroke-width:1;"/><text fill="#000000" font-family="sans-serif" font-size="14" lengthAdjust="spacing" textLength="104.7881" x="171.64" y="348.048">train(iterations)</text><ellipse cx="162.64" cy="360.7452" fill="#84BE84" rx="3" ry="3" style="stroke:#038048;stroke-width:1;"/><text fill="#000000" font-family="sans-serif" font-size="14" lengthAdjust="spacing" textLength="91.2666" x="171.64" y="364.5363">cfr_iteration()</text><ellipse cx="162.64" cy="377.2335" fill="#84BE84" rx="3" ry="3" style="stroke:#038048;stroke-width:1;"/><text fill="#000000" font-family="sans-serif" font-size="14" lengthAdjust="spacing" textLength="380.1533" x="171.64" y="381.0245">traverse_game_tree(player_id, reach_probabilities): float</text><ellipse cx="162.64" cy="393.7218" fill="#84BE84" rx="3" ry="3" style="stroke:#038048;stroke-width:1;"/><text fill="#000000" font-family="sans-serif" font-size="14" lengthAdjust="spacing" textLength="662.0674" x="171.64" y="397.5128">update_regrets(info_set_key, legal_actions, action_utilities, current_utility, counterfactual_weight)</text><ellipse cx="162.64" cy="410.2101" fill="#84BE84" rx="3" ry="3" style="stroke:#038048;stroke-width:1;"/><text fill="#000000" font-family="sans-serif" font-size="14" lengthAdjust="spacing" textLength="548.9941" x="171.64" y="414.0011">update_strategy_sum(info_set_key, legal_actions, current_strategy, player_reach)</text><ellipse cx="162.64" cy="426.6984" fill="#84BE84" rx="3" ry="3" style="stroke:#038048;stroke-width:1;"/><text fill="#000000" font-family="sans-serif" font-size="14" lengthAdjust="spacing" textLength="365.4014" x="171.64" y="430.4894">get_current_strategy(info_set_key, legal_actions): Dict</text><ellipse cx="162.64" cy="443.1866" fill="#84BE84" rx="3" ry="3" style="stroke:#038048;stroke-width:1;"/><text fill="#000000" font-family="sans-serif" font-size="14" lengthAdjust="spacing" text-decoration="underline" textLength="325.835" x="171.64" y="446.9777">average_from_strategy_sum(strategy_sum): Dict</text><ellipse cx="162.64" cy="459.6749" fill="#84BE84" rx="3" ry="3" style="stroke:#038048;stroke-width:1;"/><text fill="#000000" font-family="sans-serif" font-size="14" lengthAdjust="spacing" textLength="188.3506" x="171.64" y="463.4659">get_average_strategy(): Dict</text><ellipse cx="162.64" cy="476.1632" fill="#84BE84" rx="3" ry="3" style="stroke:#038048;stroke-width:1;"/><text fill="#000000" font-family="sans-serif" font-size="14" lengthAdjust="spacing" textLength="137.5869" x="171.64" y="479.9542">save_pickle(filepath)</text><ellipse cx="162.64" cy="492.6515" fill="#84BE84" rx="3" ry="3" style="stroke:#038048;stroke-width:1;"/><text fill="#000000" font-family="sans-serif" font-size="14" lengthAdjust="spacing" textLength="136.8623" x="171.64" y="496.4425">load_pickle(filepath)</text><ellipse cx="162.64" cy="509.1398" fill="#84BE84" rx="3" ry="3" style="stroke:#038048;stroke-width:1;"/><text fill="#000000" font-family="sans-serif" font-size="14" lengthAdjust="spacing" textLength="127.1416" x="171.64" y="512.9308">save_gzip(filepath)</text><ellipse cx="162.64" cy="525.628" fill="#84BE84" rx="3" ry="3" style="stroke:#038048;stroke-width:1;"/><text fill="#000000" font-family="sans-serif" font-size="14" lengthAdjust="spacing" textLength="126.417" x="171.64" y="529.4191">load_gzip(filepath)</text></g><!--class CFRPlusSolver--><g class="entity" data-entity="CFRPlusSolver" data-source-line="37" data-uid="ent0004" id="entity_CFRPlusSolver"><rect fill="#F1F1F1" height="196.3945" rx="2.5" ry="2.5" style="stroke:#181818;stroke-width:0.5;" width="688.0674" x="899.71" y="233.8"/><ellipse cx="1205.7022" cy="249.8" fill="#ADD1B2" rx="11" ry="11" style="stroke:#181818;stroke-width:1;"/><path d="M1208.1753,255.9431 Q1207.5943,256.2419 1206.9551,256.3913 Q1206.316,256.5407 1205.6104,256.5407 Q1203.1036,256.5407 1201.7837,254.8889 Q1200.4639,253.237 1200.4639,250.1159 Q1200.4639,246.9865 1201.7837,245.3347 Q1203.1036,243.6828 1205.6104,243.6828 Q1206.316,243.6828 1206.9634,243.8322 Q1207.6109,243.9816 1208.1753,244.2805 L1208.1753,247.0031 Q1207.5445,246.4221 1206.951,246.1523 Q1206.3575,245.8825 1205.7266,245.8825 Q1204.3819,245.8825 1203.6971,246.9492 Q1203.0122,248.0158 1203.0122,250.1159 Q1203.0122,252.2077 1203.6971,253.2744 Q1204.3819,254.341 1205.7266,254.341 Q1206.3575,254.341 1206.951,254.0712 Q1207.5445,253.8015 1208.1753,253.2204 Z " fill="#000000"/><text fill="#000000" font-family="sans-serif" font-size="10" lengthAdjust="spacing" textLength="67.583" x="1226.2022" y="253.5793">CFRPlusSolver</text><line style="stroke:#181818;stroke-width:0.5;" x1="900.71" x2="1586.7774" y1="265.8" y2="265.8"/><rect fill="none" height="6" style="stroke:#C82930;stroke-width:1;" width="6" x="907.71" y="276.5441"/><text fill="#000000" font-family="sans-serif" font-size="14" lengthAdjust="spacing" textLength="46.6758" x="919.71" y="283.3352">Q: Dict</text><line style="stroke:#181818;stroke-width:0.5;" x1="900.71" x2="1586.7774" y1="290.2883" y2="290.2883"/><ellipse cx="910.71" cy="304.0324" fill="#84BE84" rx="3" ry="3" style="stroke:#038048;stroke-width:1;"/><text fill="#000000" font-family="sans-serif" font-size="14" lengthAdjust="spacing" textLength="263.0469" x="919.71" y="307.8234">__init__(game, combination_generator)</text><ellipse cx="910.71" cy="320.5207" fill="#84BE84" rx="3" ry="3" style="stroke:#038048;stroke-width:1;"/><text fill="#000000" font-family="sans-serif" font-size="14" lengthAdjust="spacing" textLength="264.7422" x="919.71" y="324.3117">ensure_init(info_set_key, legal_actions)</text><ellipse cx="910.71" cy="337.009" fill="#84BE84" rx="3" ry="3" style="stroke:#038048;stroke-width:1;"/><text fill="#000000" font-family="sans-serif" font-size="14" lengthAdjust="spacing" textLength="91.2666" x="919.71" y="340.8">cfr_iteration()</text><ellipse cx="910.71" cy="353.4973" fill="#84BE84" rx="3" ry="3" style="stroke:#038048;stroke-width:1;"/><text fill="#000000" font-family="sans-serif" font-size="14" lengthAdjust="spacing" textLength="662.0674" x="919.71" y="357.2883">update_regrets(info_set_key, legal_actions, action_utilities, current_utility, counterfactual_weight)</text><ellipse cx="910.71" cy="369.9855" fill="#84BE84" rx="3" ry="3" style="stroke:#038048;stroke-width:1;"/><text fill="#000000" font-family="sans-serif" font-size="14" lengthAdjust="spacing" textLength="548.9941" x="919.71" y="373.7766">update_strategy_sum(info_set_key, legal_actions, current_strategy, player_reach)</text><ellipse cx="910.71" cy="386.4738" fill="#84BE84" rx="3" ry="3" style="stroke:#038048;stroke-width:1;"/><text fill="#000000" font-family="sans-serif" font-size="14" lengthAdjust="spacing" textLength="365.4014" x="919.71" y="390.2648">get_current_strategy(info_set_key, legal_actions): Dict</text><ellipse cx="910.71" cy="402.9621" fill="#84BE84" rx="3" ry="3" style="stroke:#038048;stroke-width:1;"/><text fill="#000000" font-family="sans-serif" font-size="14" lengthAdjust="spacing" textLength="127.1416" x="919.71" y="406.7531">save_gzip(filepath)</text><ellipse cx="910.71" cy="419.4504" fill="#84BE84" rx="3" ry="3" style="stroke:#038048;stroke-width:1;"/><text fill="#000000" font-family="sans-serif" font-size="14" lengthAdjust="spacing" textLength="126.417" x="919.71" y="423.2414">load_gzip(filepath)</text></g><!--class MCCFRSolver--><g class="entity" data-entity="MCCFRSolver" data-source-line="49" data-uid="ent0005" id="entity_MCCFRSolver"><rect fill="#F1F1F1" height="64.4883" rx="2.5" ry="2.5" style="stroke:#181818;stroke-width:0.5;" width="117.2666" x="1185.11" y="129.76"/><ellipse cx="1209.9529" cy="145.76" fill="#ADD1B2" rx="11" ry="11" style="stroke:#181818;stroke-width:1;"/><path d="M1212.426,151.9031 Q1211.845,152.2019 1211.2058,152.3513 Q1210.5666,152.5007 1209.8611,152.5007 Q1207.3542,152.5007 1206.0344,150.8489 Q1204.7146,149.197 1204.7146,146.0759 Q1204.7146,142.9465 1206.0344,141.2947 Q1207.3542,139.6428 1209.8611,139.6428 Q1210.5666,139.6428 1211.2141,139.7922 Q1211.8616,139.9416 1212.426,140.2405 L1212.426,142.9631 Q1211.7952,142.3821 1211.2017,142.1123 Q1210.6081,141.8425 1209.9773,141.8425 Q1208.6326,141.8425 1207.9477,142.9092 Q1207.2629,143.9758 1207.2629,146.0759 Q1207.2629,148.1677 1207.9477,149.2344 Q1208.6326,150.301 1209.9773,150.301 Q1210.6081,150.301 1211.2017,150.0312 Q1211.7952,149.7615 1212.426,149.1804 Z " fill="#000000"/><text fill="#000000" font-family="sans-serif" font-size="10" lengthAdjust="spacing" textLength="63.3936" x="1226.1402" y="149.5393">MCCFRSolver</text><line style="stroke:#181818;stroke-width:0.5;" x1="1186.11" x2="1301.3766" y1="161.76" y2="161.76"/><line style="stroke:#181818;stroke-width:0.5;" x1="1186.11" x2="1301.3766" y1="169.76" y2="169.76"/><ellipse cx="1196.11" cy="183.5041" fill="#84BE84" rx="3" ry="3" style="stroke:#038048;stroke-width:1;"/><text fill="#000000" font-family="sans-serif" font-size="14" lengthAdjust="spacing" textLength="91.2666" x="1205.11" y="187.2952">cfr_iteration()</text></g><!--class train--><g class="entity" data-entity="train" data-source-line="54" data-uid="ent0006" id="entity_train"><rect fill="#F1F1F1" height="64.4883" rx="2.5" ry="2.5" style="stroke:#181818;stroke-width:0.5;" width="68.6426" x="23" y="389.76"/><ellipse cx="44.3861" cy="405.76" fill="#ADD1B2" rx="11" ry="11" style="stroke:#181818;stroke-width:1;"/><path d="M46.8593,411.9031 Q46.2782,412.2019 45.6391,412.3513 Q44.9999,412.5007 44.2943,412.5007 Q41.7875,412.5007 40.4677,410.8489 Q39.1479,409.197 39.1479,406.0759 Q39.1479,402.9465 40.4677,401.2947 Q41.7875,399.6428 44.2943,399.6428 Q44.9999,399.6428 45.6474,399.7922 Q46.2948,399.9416 46.8593,400.2405 L46.8593,402.9631 Q46.2284,402.3821 45.6349,402.1123 Q45.0414,401.8425 44.4105,401.8425 Q43.0658,401.8425 42.381,402.9092 Q41.6962,403.9758 41.6962,406.0759 Q41.6962,408.1677 42.381,409.2344 Q43.0658,410.301 44.4105,410.301 Q45.0414,410.301 45.6349,410.0312 Q46.2284,409.7615 46.8593,409.1804 Z " fill="#000000"/><text fill="#000000" font-family="sans-serif" font-size="10" lengthAdjust="spacing" textLength="22.4512" x="59.8053" y="409.5393">train</text><line style="stroke:#181818;stroke-width:0.5;" x1="24" x2="90.6426" y1="421.76" y2="421.76"/><line style="stroke:#181818;stroke-width:0.5;" x1="24" x2="90.6426" y1="429.76" y2="429.76"/><ellipse cx="34" cy="443.5041" fill="#84BE84" rx="3" ry="3" style="stroke:#038048;stroke-width:1;"/><text fill="#000000" font-family="sans-serif" font-size="14" lengthAdjust="spacing" text-decoration="underline" textLength="42.6426" x="43" y="447.2952">main()</text></g><!--class PokerCombinationGenerator--><g class="entity" data-entity="PokerCombinationGenerator" data-source-line="61" data-uid="ent0008" id="entity_PokerCombinationGenerator"><rect fill="#F1F1F1" height="80.9766" rx="2.5" ry="2.5" style="stroke:#181818;stroke-width:0.5;" width="375.4395" x="1659.78" y="452.51"/><ellipse cx="1774.4338" cy="468.51" fill="#ADD1B2" rx="11" ry="11" style="stroke:#181818;stroke-width:1;"/><path d="M1776.907,474.6531 Q1776.3259,474.9519 1775.6867,475.1013 Q1775.0476,475.2507 1774.342,475.2507 Q1771.8352,475.2507 1770.5154,473.5989 Q1769.1955,471.947 1769.1955,468.8259 Q1769.1955,465.6965 1770.5154,464.0447 Q1771.8352,462.3928 1774.342,462.3928 Q1775.0476,462.3928 1775.695,462.5422 Q1776.3425,462.6916 1776.907,462.9905 L1776.907,465.7131 Q1776.2761,465.1321 1775.6826,464.8623 Q1775.0891,464.5925 1774.4582,464.5925 Q1773.1135,464.5925 1772.4287,465.6592 Q1771.7439,466.7258 1771.7439,468.8259 Q1771.7439,470.9177 1772.4287,471.9844 Q1773.1135,473.051 1774.4582,473.051 Q1775.0891,473.051 1775.6826,472.7812 Q1776.2761,472.5115 1776.907,471.9304 Z " fill="#000000"/><text fill="#000000" font-family="sans-serif" font-size="10" lengthAdjust="spacing" textLength="137.6318" x="1794.9338" y="472.2893">PokerCombinationGenerator</text><line style="stroke:#181818;stroke-width:0.5;" x1="1660.78" x2="2034.2195" y1="484.51" y2="484.51"/><line style="stroke:#181818;stroke-width:0.5;" x1="1660.78" x2="2034.2195" y1="492.51" y2="492.51"/><ellipse cx="1670.78" cy="506.2541" fill="#84BE84" rx="3" ry="3" style="stroke:#038048;stroke-width:1;"/><text fill="#000000" font-family="sans-serif" font-size="14" font-style="italic" lengthAdjust="spacing" textLength="185.2676" x="1679.78" y="510.0452">get_all_combinations(): List</text><ellipse cx="1670.78" cy="522.7424" fill="#84BE84" rx="3" ry="3" style="stroke:#038048;stroke-width:1;"/><text fill="#000000" font-family="sans-serif" font-size="14" font-style="italic" lengthAdjust="spacing" textLength="349.4395" x="1679.78" y="526.5334">setup_game_with_combination(game, combination)</text></g><!--class KuhnPokerCombinations--><g class="entity" data-entity="KuhnPokerCombinations" data-source-line="66" data-uid="ent0009" id="entity_KuhnPokerCombinations"><rect fill="#F1F1F1" height="80.9766" rx="2.5" ry="2.5" style="stroke:#181818;stroke-width:0.5;" width="375.4395" x="2095.22" y="452.51"/><ellipse cx="2218.8338" cy="468.51" fill="#ADD1B2" rx="11" ry="11" style="stroke:#181818;stroke-width:1;"/><path d="M2221.3069,474.6531 Q2220.7259,474.9519 2220.0867,475.1013 Q2219.4475,475.2507 2218.742,475.2507 Q2216.2351,475.2507 2214.9153,473.5989 Q2213.5955,471.947 2213.5955,468.8259 Q2213.5955,465.6965 2214.9153,464.0447 Q2216.2351,462.3928 2218.742,462.3928 Q2219.4475,462.3928 2220.095,462.5422 Q2220.7425,462.6916 2221.3069,462.9905 L2221.3069,465.7131 Q2220.6761,465.1321 2220.0825,464.8623 Q2219.489,464.5925 2218.8582,464.5925 Q2217.5135,464.5925 2216.8286,465.6592 Q2216.1438,466.7258 2216.1438,468.8259 Q2216.1438,470.9177 2216.8286,471.9844 Q2217.5135,473.051 2218.8582,473.051 Q2219.489,473.051 2220.0825,472.7812 Q2220.6761,472.5115 2221.3069,471.9304 Z " fill="#000000"/><text fill="#000000" font-family="sans-serif" font-size="10" lengthAdjust="spacing" textLength="119.7119" x="2239.3338" y="472.2893">KuhnPokerCombinations</text><line style="stroke:#181818;stroke-width:0.5;" x1="2096.22" x2="2469.6595" y1="484.51" y2="484.51"/><line style="stroke:#181818;stroke-width:0.5;" x1="2096.22" x2="2469.6595" y1="492.51" y2="492.51"/><ellipse cx="2106.22" cy="506.2541" fill="#84BE84" rx="3" ry="3" style="stroke:#038048;stroke-width:1;"/><text fill="#000000" font-family="sans-serif" font-size="14" lengthAdjust="spacing" textLength="232.5723" x="2115.22" y="510.0452">get_all_combinations(): List[Tuple]</text><ellipse cx="2106.22" cy="522.7424" fill="#84BE84" rx="3" ry="3" style="stroke:#038048;stroke-width:1;"/><text fill="#000000" font-family="sans-serif" font-size="14" lengthAdjust="spacing" textLength="349.4395" x="2115.22" y="526.5334">setup_game_with_combination(game, combination)</text></g><!--class LeducHoldemCombinations--><g class="entity" data-entity="LeducHoldemCombinations" data-source-line="71" data-uid="ent0010" id="entity_LeducHoldemCombinations"><rect fill="#F1F1F1" height="80.9766" rx="2.5" ry="2.5" style="stroke:#181818;stroke-width:0.5;" width="375.4395" x="2095.22" y="573.51"/><ellipse cx="2211.9417" cy="589.51" fill="#ADD1B2" rx="11" ry="11" style="stroke:#181818;stroke-width:1;"/><path d="M2214.4148,595.6531 Q2213.8338,595.9519 2213.1946,596.1013 Q2212.5554,596.2507 2211.8499,596.2507 Q2209.343,596.2507 2208.0232,594.5989 Q2206.7034,592.947 2206.7034,589.8259 Q2206.7034,586.6965 2208.0232,585.0447 Q2209.343,583.3928 2211.8499,583.3928 Q2212.5554,583.3928 2213.2029,583.5422 Q2213.8504,583.6916 2214.4148,583.9905 L2214.4148,586.7131 Q2213.784,586.1321 2213.1905,585.8623 Q2212.597,585.5925 2211.9661,585.5925 Q2210.6214,585.5925 2209.9366,586.6592 Q2209.2517,587.7258 2209.2517,589.8259 Q2209.2517,591.9177 2209.9366,592.9844 Q2210.6214,594.051 2211.9661,594.051 Q2212.597,594.051 2213.1905,593.7812 Q2213.784,593.5115 2214.4148,592.9304 Z " fill="#000000"/><text fill="#000000" font-family="sans-serif" font-size="10" lengthAdjust="spacing" textLength="133.4961" x="2232.4417" y="593.2893">LeducHoldemCombinations</text><line style="stroke:#181818;stroke-width:0.5;" x1="2096.22" x2="2469.6595" y1="605.51" y2="605.51"/><line style="stroke:#181818;stroke-width:0.5;" x1="2096.22" x2="2469.6595" y1="613.51" y2="613.51"/><ellipse cx="2106.22" cy="627.2541" fill="#84BE84" rx="3" ry="3" style="stroke:#038048;stroke-width:1;"/><text fill="#000000" font-family="sans-serif" font-size="14" lengthAdjust="spacing" textLength="232.5723" x="2115.22" y="631.0452">get_all_combinations(): List[Tuple]</text><ellipse cx="2106.22" cy="643.7424" fill="#84BE84" rx="3" ry="3" style="stroke:#038048;stroke-width:1;"/><text fill="#000000" font-family="sans-serif" font-size="14" lengthAdjust="spacing" textLength="349.4395" x="2115.22" y="647.5334">setup_game_with_combination(game, combination)</text></g><!--class RhodeIslandCombinations--><g class="entity" data-entity="RhodeIslandCombinations" data-source-line="76" data-uid="ent0011" id="entity_RhodeIslandCombinations"><rect fill="#F1F1F1" height="80.9766" rx="2.5" ry="2.5" style="stroke:#181818;stroke-width:0.5;" width="375.4395" x="2095.22" y="694.51"/><ellipse cx="2215.2815" cy="710.51" fill="#ADD1B2" rx="11" ry="11" style="stroke:#181818;stroke-width:1;"/><path d="M2217.7547,716.6531 Q2217.1736,716.9519 2216.5345,717.1013 Q2215.8953,717.2507 2215.1897,717.2507 Q2212.6829,717.2507 2211.3631,715.5989 Q2210.0432,713.947 2210.0432,710.8259 Q2210.0432,707.6965 2211.3631,706.0447 Q2212.6829,704.3928 2215.1897,704.3928 Q2215.8953,704.3928 2216.5428,704.5422 Q2217.1902,704.6916 2217.7547,704.9905 L2217.7547,707.7131 Q2217.1238,707.1321 2216.5303,706.8623 Q2215.9368,706.5925 2215.3059,706.5925 Q2213.9612,706.5925 2213.2764,707.6592 Q2212.5916,708.7258 2212.5916,710.8259 Q2212.5916,712.9177 2213.2764,713.9844 Q2213.9612,715.051 2215.3059,715.051 Q2215.9368,715.051 2216.5303,714.7812 Q2217.1238,714.5115 2217.7547,713.9304 Z " fill="#000000"/><text fill="#000000" font-family="sans-serif" font-size="10" lengthAdjust="spacing" textLength="126.8164" x="2235.7815" y="714.2893">RhodeIslandCombinations</text><line style="stroke:#181818;stroke-width:0.5;" x1="2096.22" x2="2469.6595" y1="726.51" y2="726.51"/><line style="stroke:#181818;stroke-width:0.5;" x1="2096.22" x2="2469.6595" y1="734.51" y2="734.51"/><ellipse cx="2106.22" cy="748.2541" fill="#84BE84" rx="3" ry="3" style="stroke:#038048;stroke-width:1;"/><text fill="#000000" font-family="sans-serif" font-size="14" lengthAdjust="spacing" textLength="232.5723" x="2115.22" y="752.0452">get_all_combinations(): List[Tuple]</text><ellipse cx="2106.22" cy="764.7424" fill="#84BE84" rx="3" ry="3" style="stroke:#038048;stroke-width:1;"/><text fill="#000000" font-family="sans-serif" font-size="14" lengthAdjust="spacing" textLength="349.4395" x="2115.22" y="768.5334">setup_game_with_combination(game, combination)</text></g><!--reverse link PokerCombinationGenerator to KuhnPokerCombinations--><g class="link" data-entity-1="PokerCombinationGenerator" data-entity-2="KuhnPokerCombinations" data-source-line="83" data-uid="lnk12" id="link_PokerCombinationGenerator_KuhnPokerCombinations"><path codeLine="83" d="M2053.64,493 C2073.3,493 2075.3,493 2094.96,493" fill="none" id="PokerCombinationGenerator-backto-KuhnPokerCombinations" style="stroke:#181818;stroke-width:1;"/><polygon fill="none" points="2035.64,493,2053.64,499,2053.64,487,2035.64,493" style="stroke:#181818;stroke-width:1;"/></g><!--reverse link PokerCombinationGenerator to LeducHoldemCombinations--><g class="link" data-entity-1="PokerCombinationGenerator" data-entity-2="LeducHoldemCombinations" data-source-line="84" data-uid="lnk13" id="link_PokerCombinationGenerator_LeducHoldemCombinations"><path codeLine="84" d="M1909.66,551.95 C1909.66,582.33 1909.66,600.5 1909.66,600.5 C1909.66,600.5 2002.07,600.5 2094.93,600.5" fill="none" id="PokerCombinationGenerator-backto-LeducHoldemCombinations" style="stroke:#181818;stroke-width:1;"/><polygon fill="none" points="1909.66,533.95,1903.66,551.95,1915.66,551.95,1909.66,533.95" style="stroke:#181818;stroke-width:1;"/></g><!--reverse link PokerCombinationGenerator to RhodeIslandCombinations--><g class="link" data-entity-1="PokerCombinationGenerator" data-entity-2="RhodeIslandCombinations" data-source-line="85" data-uid="lnk14" id="link_PokerCombinationGenerator_RhodeIslandCombinations"><path codeLine="85" d="M1784.66,551.85 C1784.66,617.58 1784.66,721.5 1784.66,721.5 C1784.66,721.5 1953.74,721.5 2094.91,721.5" fill="none" id="PokerCombinationGenerator-backto-RhodeIslandCombinations" style="stroke:#181818;stroke-width:1;"/><polygon fill="none" points="1784.66,533.85,1778.66,551.85,1790.66,551.85,1784.66,533.85" style="stroke:#181818;stroke-width:1;"/></g><!--reverse link CFRSolver to CFRPlusSolver--><g class="link" data-entity-1="CFRSolver" data-entity-2="CFRPlusSolver" data-source-line="87" data-uid="lnk15" id="link_CFRSolver_CFRPlusSolver"><path codeLine="87" d="M858.15,332 C877.8,332 879.56,332 899.22,332" fill="none" id="CFRSolver-backto-CFRPlusSolver" style="stroke:#181818;stroke-width:1;"/><polygon fill="none" points="840.15,332,858.15,338,858.15,326,840.15,332" style="stroke:#181818;stroke-width:1;"/></g><!--reverse link CFRSolver to MCCFRSolver--><g class="link" data-entity-1="CFRSolver" data-entity-2="MCCFRSolver" data-source-line="88" data-uid="lnk16" id="link_CFRSolver_MCCFRSolver"><path codeLine="88" d="M858.15,162 C990.25,162 1109.3,162 1184.84,162" fill="none" id="CFRSolver-backto-MCCFRSolver" style="stroke:#181818;stroke-width:1;"/><polygon fill="none" points="840.15,162,858.15,168,858.15,156,840.15,162" style="stroke:#181818;stroke-width:1;"/></g><!--reverse link CFRSolver to PokerCombinationGenerator--><g class="link" data-entity-1="CFRSolver" data-entity-2="PokerCombinationGenerator" data-source-line="90" data-uid="lnk17" id="link_CFRSolver_PokerCombinationGenerator"><path codeLine="90" d="M851.86,493 C1112.34,493 1448.23,493 1659.65,493" fill="none" id="CFRSolver-backto-PokerCombinationGenerator" style="stroke:#181818;stroke-width:1;"/><polygon fill="#181818" points="839.86,493,845.86,497,851.86,493,845.86,489,839.86,493" style="stroke:#181818;stroke-width:1;"/></g><!--reverse link CFRPlusSolver to PokerCombinationGenerator--><g class="link" data-entity-1="CFRPlusSolver" data-entity-2="PokerCombinationGenerator" data-source-line="91" data-uid="lnk18" id="link_CFRPlusSolver_PokerCombinationGenerator"><path codeLine="91" d="M1600.23,332 C1706.74,332 1784.66,332 1784.66,332 C1784.66,332 1784.66,404.68 1784.66,452.37" fill="none" id="CFRPlusSolver-backto-PokerCombinationGenerator" style="stroke:#181818;stroke-width:1;"/><polygon fill="#181818" points="1588.23,332,1594.23,336,1600.23,332,1594.23,328,1588.23,332" style="stroke:#181818;stroke-width:1;"/></g><!--reverse link MCCFRSolver to PokerCombinationGenerator--><g class="link" data-entity-1="MCCFRSolver" data-entity-2="PokerCombinationGenerator" data-source-line="92" data-uid="lnk19" id="link_MCCFRSolver_PokerCombinationGenerator"><path codeLine="92" d="M1314.84,162 C1477.81,162 1909.66,162 1909.66,162 C1909.66,162 1909.66,363.52 1909.66,452.08" fill="none" id="MCCFRSolver-backto-PokerCombinationGenerator" style="stroke:#181818;stroke-width:1;"/><polygon fill="#181818" points="1302.84,162,1308.84,166,1314.84,162,1308.84,158,1302.84,162" style="stroke:#181818;stroke-width:1;"/></g><!--link train to CFRSolver--><g class="link" data-entity-1="train" data-entity-2="CFRSolver" data-source-line="94" data-uid="lnk20" id="link_train_CFRSolver"><path codeLine="94" d="M92.08,422 C107.88,422 122.23,422 145.38,422" fill="none" id="train-to-CFRSolver" style="stroke:#181818;stroke-width:1;stroke-dasharray:7,7;"/><polygon fill="#181818" points="151.38,422,142.38,418,146.38,422,142.38,426,151.38,422" style="stroke:#181818;stroke-width:1;"/><text fill="#000000" font-family="sans-serif" font-size="13" lengthAdjust="spacing" textLength="28.5645" x="92.73" y="435.5684">uses</text></g><!--link train to CFRPlusSolver--><g class="link" data-entity-1="train" data-entity-2="CFRPlusSolver" data-source-line="95" data-uid="lnk21" id="link_train_CFRPlusSolver"><path codeLine="95" d="M68.66,389.29 C68.66,309.93 68.66,113.63 68.66,113.63 C68.66,113.63 1042.66,113.63 1042.66,113.63 C1042.66,113.63 1042.66,169.49 1042.66,227.36" fill="none" id="train-to-CFRPlusSolver" style="stroke:#181818;stroke-width:1;stroke-dasharray:7,7;"/><polygon fill="#181818" points="1042.66,233.36,1046.66,224.36,1042.66,228.36,1038.66,224.36,1042.66,233.36" style="stroke:#181818;stroke-width:1;"/><text fill="#000000" font-family="sans-serif" font-size="13" lengthAdjust="spacing" textLength="28.5645" x="448.69" y="110.1984">uses</text></g><!--link train to MCCFRSolver--><g class="link" data-entity-1="train" data-entity-2="MCCFRSolver" data-source-line="96" data-uid="lnk22" id="link_train_MCCFRSolver"><path codeLine="96" d="M45.66,389.52 C45.66,308.07 45.66,101.63 45.66,101.63 C45.66,101.63 1243.66,101.63 1243.66,101.63 C1243.66,101.63 1243.66,109.12 1243.66,123.34" fill="none" id="train-to-MCCFRSolver" style="stroke:#181818;stroke-width:1;stroke-dasharray:7,7;"/><polygon fill="#181818" points="1243.66,129.34,1247.66,120.34,1243.66,124.34,1239.66,120.34,1243.66,129.34" style="stroke:#181818;stroke-width:1;"/><text fill="#000000" font-family="sans-serif" font-size="13" lengthAdjust="spacing" textLength="28.5645" x="485.57" y="115.1984">uses</text></g><!--link train to KuhnPokerCombinations--><g class="link" data-entity-1="train" data-entity-2="KuhnPokerCombinations" data-source-line="97" data-uid="lnk23" id="link_train_KuhnPokerCombinations"><path codeLine="97" d="M74.66,454.52 C74.66,493.88 74.66,554.94 74.66,554.94 C74.66,554.94 2282.66,554.94 2282.66,554.94 C2282.66,554.94 2282.66,551.49 2282.66,539.97" fill="none" id="train-to-KuhnPokerCombinations" style="stroke:#181818;stroke-width:1;stroke-dasharray:7,7;"/><polygon fill="#181818" points="2282.66,533.97,2278.66,542.97,2282.66,538.97,2286.66,542.97,2282.66,533.97" style="stroke:#181818;stroke-width:1;"/><text fill="#000000" font-family="sans-serif" font-size="13" lengthAdjust="spacing" textLength="28.5645" x="1109.93" y="568.5084">uses</text></g><!--link train to LeducHoldemCombinations--><g class="link" data-entity-1="train" data-entity-2="LeducHoldemCombinations" data-source-line="98" data-uid="lnk24" id="link_train_LeducHoldemCombinations"><path codeLine="98" d="M57.66,454.56 C57.66,512.51 57.66,627.5 57.66,627.5 C57.66,627.5 1552.64,627.5 2089.13,627.5" fill="none" id="train-to-LeducHoldemCombinations" style="stroke:#181818;stroke-width:1;stroke-dasharray:7,7;"/><polygon fill="#181818" points="2095.13,627.5,2086.13,623.5,2090.13,627.5,2086.13,631.5,2095.13,627.5" style="stroke:#181818;stroke-width:1;"/><text fill="#000000" font-family="sans-serif" font-size="13" lengthAdjust="spacing" textLength="28.5645" x="960.92" y="641.0684">uses</text></g><!--link train to RhodeIslandCombinations--><g class="link" data-entity-1="train" data-entity-2="RhodeIslandCombinations" data-source-line="99" data-uid="lnk25" id="link_train_RhodeIslandCombinations"><path codeLine="99" d="M40.66,454.5 C40.66,537.08 40.66,748.5 40.66,748.5 C40.66,748.5 1549.81,748.5 2089.14,748.5" fill="none" id="train-to-RhodeIslandCombinations" style="stroke:#181818;stroke-width:1;stroke-dasharray:7,7;"/><polygon fill="#181818" points="2095.14,748.5,2086.14,744.5,2090.14,748.5,2086.14,752.5,2095.14,748.5" style="stroke:#181818;stroke-width:1;"/><text fill="#000000" font-family="sans-serif" font-size="13" lengthAdjust="spacing" textLength="28.5645" x="891.9" y="762.0684">uses</text></g><!--SRC=[vLPHRzCm47xFhx3sbB9s0WdnK25UYWQ88OsDDuGiDxaaLXqxiizCNUb_ntRIr4tJJfe4FF2MtNrtzztvk-i454XG4StB2adEDMJ8bKmIi-AoOPhLHAeS33JazSl8g9bSUUERs2Yu15mtG9J6IaMEJ31ZhfN4U_u8v5KSqx1inKgunxK0ugipMGf8aivEBb0pBhaiByWcGLK2Lg3TPqX95jTtzqhy31P2PgHaDOIFJDLBBfdlXPOWGJDKUkWnmQ2Xr83Ks7fEtlCCWz6uiWZbUc3cw3Fvf9co4kU4ozQnOqcHrp0dXL2iTJ17plL1TmdxP9U4KXU2bAQUzNISyYGWGHgh8S1JBWj5ZIEyWlMK22YPe2myccd1WKhQC-siMQ5fRqjxf6DdW7e253L0sWYs1eVCfsukBAjeezMIBRdWoC5CzfrT4jlahYFQZi-SupKbxGUrs2LotLgjGM9dMllstK115mvgNUW3U4LEuahncvmljqk-YvYIhg_GKvlKAOaESMU76xtSng2ROxRjNxVGgZxa5_yHX_goGqsaCS0uBsrujXAG5bn0mx1Zx2QVZtj2JFd8cx68WNsRx7VdLbXpi3zV_xmynuJu7qlfMK_tPN5u-8wdkjs3mpteOBrmQtyZEbX_Qlq0pUYTlLKhq8kz0Zxi113oRjZIjvtXTYTm8MXyPxt0RxZ18TQDnpRjzNdWMCKnnwgB-lziApcaPBeMpzN__iqs0dwqWtzcxHl8RVPHYHpgVr3zhdA_nf-CO3B_czM3JawBuEslsMpyKPuAEZ7Dfy9EZ259zdiHS0StRkYCjYWEVE5S9yidXrVpF3PUq_F8f5tIgwjtqRyqSs8Dc4DNLFl87PSxSewlp17ibBgFWAU4s05_0m00]--></g></svg>